<?xml version="1.0" encoding="utf-8"?><svg xmlns="http://www.w3.org/2000/svg" xmlns:xlink="http://www.w3.org/1999/xlink"><symbol viewBox="0 0 11 16" id="contacts-address" xmlns="http://www.w3.org/2000/svg"><path d="M5.501 0C2.463 0 0 2.417 0 5.4c0 1.525 1.515 4.258 1.515 4.258L5.298 16l3.948-6.268S11 7.124 11 5.399C11 2.417 8.538 0 5.501 0zm-.026 8.373c-1.74 0-3.149-1.392-3.149-3.113 0-1.719 1.409-3.11 3.15-3.11 1.738 0 3.15 1.391 3.15 3.11 0 1.72-1.412 3.113-3.15 3.113z"/></symbol><symbol viewBox="0 0 13 13" id="contacts-email" xmlns="http://www.w3.org/2000/svg"><path d="M1.863 11.177a6.322 6.322 0 0 0 2.128 1.341A7.68 7.68 0 0 0 6.733 13c1.112 0 2.138-.168 3.06-.513.836-.304.116-1.844-.498-1.592-.677.282-1.503.429-2.446.429a5.781 5.781 0 0 1-2.011-.335 4.386 4.386 0 0 1-1.535-.943 4.29 4.29 0 0 1-.995-1.487c-.244-.587-.36-1.257-.36-1.99 0-.692.116-1.352.35-1.939.232-.586.55-1.11.973-1.53a4.425 4.425 0 0 1 1.503-1.015 5.092 5.092 0 0 1 1.959-.367c.667 0 1.28.094 1.831.262a3.78 3.78 0 0 1 1.398.775c.392.346.699.765.92 1.268.223.503.33 1.09.33 1.76a4.6 4.6 0 0 1-.128 1.1c-.085.324-.19.618-.339.848-.137.22-.296.398-.487.524-.222.146-.55.23-.804.146-.318-.104-.254-.544-.233-.806.032-.356.127-.691.2-1.037.117-.566.244-1.121.36-1.676.064-.304.138-.618.202-.922a.634.634 0 0 0-.625-.765h-.465a.635.635 0 0 0-.615.461c-.031.126-.063.23-.063.23-.233-.712-1.09-.91-1.768-.9-.89.01-1.704.46-2.297 1.1-.053.062-.117.125-.17.188a4.03 4.03 0 0 0-.698 1.247c-.17.482-.254.974-.254 1.477 0 .43.063.838.18 1.204.127.378.306.702.54.975.232.272.529.492.878.65.35.156.741.24 1.165.24.317 0 .614-.052.878-.146a3.28 3.28 0 0 0 .688-.346c.16-.105.307-.23.424-.346.074.136.159.251.275.367.297.314.752.471 1.355.471a3.44 3.44 0 0 0 1.377-.283 3.258 3.258 0 0 0 1.153-.859c.318-.377.583-.838.773-1.382.19-.545.286-1.174.286-1.865 0-.943-.18-1.78-.53-2.483a5.199 5.199 0 0 0-1.418-1.77C10.47.954 9.792.608 9.041.367A7.132 7.132 0 0 0 6.733 0c-.921 0-1.8.168-2.615.492A6.844 6.844 0 0 0 1.98 1.865 6.356 6.356 0 0 0 .53 3.928 6.359 6.359 0 0 0 0 6.516c0 .932.159 1.812.487 2.598a5.908 5.908 0 0 0 1.376 2.063zm5.727-4.4c-.074.283-.18.556-.328.807a1.9 1.9 0 0 1-.56.597c-.213.147-.467.22-.784.22a.886.886 0 0 1-.477-.115.908.908 0 0 1-.307-.325 1.518 1.518 0 0 1-.169-.46 2.563 2.563 0 0 1-.053-.462c0-.293.042-.586.127-.89a2.74 2.74 0 0 1 .36-.796c.159-.23.339-.42.561-.566a1.18 1.18 0 0 1 .688-.199c.212 0 .381.032.508.105a.883.883 0 0 1 .307.283c.085.126.138.272.18.43.043.177.064.366.064.544-.01.262-.042.534-.117.828z"/></symbol><symbol viewBox="0 0 11 12" id="contacts-tel" xmlns="http://www.w3.org/2000/svg"><path d="M4.265 6.048c.298.364.567.63.564.629A8.752 8.752 0 0 0 6.27 8.1c.366.288.94.325 1.253.127.312-.198.912-.6 1.36-.498.378.086.878.375 1.48 1.116 1.42 1.748.148 2.294-.733 2.999-.883.704-3.794-1.04-6.46-3.884C.5 5.117-.504 2.176.234 1.31.974.444 1.59-.84 3.158.765c.666.68.905 1.221.96 1.62.065.474-.363 1.068-.575 1.378-.212.31-.218.91.03 1.313.219.355.453.679.692.972z"/></symbol><symbol viewBox="0 0 139.4 44.7" id="firm-dd" xmlns="http://www.w3.org/2000/svg"><path d="M52.2 19.5V8.1H57c3.6 0 6.1 2.1 6.1 5.7 0 3.5-2.6 5.7-6.1 5.7h-4.8zm7.9-5.7c0-1.8-1.1-3.1-3.1-3.1h-1.9v6.2H57c2 0 3.1-1.4 3.1-3.1m4.1 0c0-3.4 2.6-5.9 6.1-5.9 3.5 0 6.1 2.4 6.1 5.9 0 3.5-2.6 5.9-6.1 5.9-3.5 0-6.1-2.4-6.1-5.9m9.2 0c0-1.9-1.2-3.3-3.1-3.3-1.9 0-3.1 1.4-3.1 3.3 0 1.8 1.2 3.3 3.1 3.3 1.9 0 3.1-1.4 3.1-3.3m11 5.7l-1.9-3.8H81v3.8h-2.9V8.1h5.7c2.5 0 3.9 1.7 3.9 3.8 0 2-1.2 3-2.3 3.4l2.3 4.2h-3.3zm.3-7.6c0-.8-.6-1.2-1.4-1.2H81v2.4h2.3c.8 0 1.4-.4 1.4-1.2m4.2 1.9c0-3.4 2.6-5.9 6.1-5.9 3.5 0 6.1 2.4 6.1 5.9 0 3.5-2.6 5.9-6.1 5.9-3.5 0-6.1-2.4-6.1-5.9m9.1 0c0-1.9-1.2-3.3-3.1-3.3-1.9 0-3.1 1.4-3.1 3.3 0 1.8 1.2 3.3 3.1 3.3 1.9 0 3.1-1.4 3.1-3.3m12.4 5.7v-4.6h-4.7v4.6h-3V8.1h3v4.3h4.7V8.1h2.9v11.4zm4.6-5.7c0-3.4 2.6-5.9 6.1-5.9 3.5 0 6.1 2.4 6.1 5.9 0 3.5-2.6 5.9-6.1 5.9-3.5 0-6.1-2.4-6.1-5.9m9.2 0c0-1.9-1.2-3.3-3.1-3.3-1.9 0-3.1 1.4-3.1 3.3 0 1.8 1.2 3.3 3.1 3.3 1.9 0 3.1-1.4 3.1-3.3m7.3 5.7l-4.3-11.4h3.3l2.8 8.2 2.8-8.2h3.3l-4.2 11.4zm-79.3 17V25.1H57c3.6 0 6.1 2.1 6.1 5.7 0 3.5-2.6 5.7-6.1 5.7h-4.8zm7.9-5.7c0-1.8-1.1-3.1-3.1-3.1h-1.9v6.2H57c2 0 3.1-1.4 3.1-3.1m4.7 5.7V25.1h8.3v2.6h-5.3v1.8H73V32h-5.2v1.9h5.3v2.6zm9.6-1.6l1.5-2.2c.8.8 2.1 1.5 3.6 1.5 1 0 1.6-.4 1.6-.9 0-1.5-6.4-.3-6.4-4.7 0-1.9 1.6-3.6 4.5-3.6 1.8 0 3.4.5 4.6 1.6l-1.6 2.1c-1-.8-2.2-1.2-3.3-1.2-.8 0-1.2.3-1.2.8 0 1.4 6.4.4 6.4 4.6 0 2.3-1.7 3.8-4.7 3.8-2.2 0-3.8-.7-5-1.8m11.5-9.8h2.9v11.3h-2.9zm4.7 5.7c0-3.6 2.8-5.9 6.1-5.9 2.5 0 4.1 1.3 4.8 2.8L99.1 29c-.4-.7-1.3-1.4-2.4-1.4-1.9 0-3.2 1.4-3.2 3.3s1.3 3.3 3.2 3.3c.8 0 1.7-.3 2.1-.7v-.9h-2.6V30h5.5v4.5c-1.2 1.3-2.9 2.2-5 2.2-3.4 0-6.1-2.3-6.1-5.9m20.9 5.7l-4.8-6.6v6.6h-2.9V25.1h3l4.6 6.3v-6.3h2.9v11.4zM17.7 0H0v44.7h17.8c15 0 24.6-8.8 24.6-22.4C42.4 8.7 32.7 0 17.7 0m-.4 35.7h-8V9.5h8c9.3 0 15.7 3.7 15.7 12.7.1 7.5-5.8 13.5-15.7 13.5"/><path d="M19.1 17H17v10.6h2c4 0 6.4-2.4 6.4-5.4 0-3.7-2.6-5.2-6.3-5.2"/></symbol><symbol viewBox="0 0 190 30" id="firm-fed" xmlns="http://www.w3.org/2000/svg"><path fill-rule="evenodd" clip-rule="evenodd" d="M2.276 0H26.56c1.255 0 2.276 1.07 2.276 2.368v25.264c0 1.306-1.028 2.368-2.276 2.368H2.276C1.021 30 0 28.93 0 27.632V2.368C0 1.062 1.029 0 2.276 0z" fill="#F24F00"/><path d="M6.075 26.786c-1.056 0-.14-.008-.43-.008-1.369.015-2.003.023-2.863-1.01-.696-.84-.673-1.391-.626-2.433.008-.124.016-.28.016-.73V11.352l.985-.738 9.873-7.368 1.471-1.103 1.471 1.111 10.64 8.02v9.1l-4.898-3.691v-3l-7.228-5.447-7.41 5.533v8.195H26.7v4.822H6.075z" fill="#fff"/><path d="M39.015 17.204c-1 0-2.18.033-2.89.734-.72.717-.751 1.958-.751 2.92 0 .937.031 2.194.75 2.92.703.7 1.907.734 2.891.734s2.196-.033 2.891-.734c.719-.726.75-1.983.75-2.92 0-.962-.031-2.203-.75-2.92-.711-.7-1.89-.734-2.891-.734zm-1.445 3.654c0-.59.007-.979.242-1.359.281-.472.648-.523 1.203-.523s.906.05 1.203.523c.258.397.242.735.242 1.359 0 .574 0 .97-.242 1.359-.297.472-.64.523-1.203.523-.54 0-.914-.05-1.203-.523-.219-.355-.242-.794-.242-1.359zm9.9-1.857c.124 0 .233 0 .327.102.094.1.094.244.094.37v4.963h2.133v-6.118c0-.237-.047-.498-.258-.726-.273-.295-.586-.304-.977-.304h-4.14c-.313 0-.688-.017-.993.304-.21.228-.258.49-.258.726v6.118h2.133v-4.962c0-.135 0-.262.094-.371.102-.11.219-.102.328-.102h1.516zm9.375 5.435v-1.738H53.61c-.133 0-.304.008-.406-.093-.047-.042-.094-.127-.094-.262v-.776h3.61v-1.553h-3.61v-.54c0-.093 0-.253.102-.346a.531.531 0 0 1 .328-.101h3.274v-1.739h-4.758c-.235 0-.555.042-.805.287-.242.245-.282.54-.282.819v4.903c0 .338 0 .625.305.895.258.227.531.244.805.244h4.766zm2.797 0v-2.059h2.79c.359 0 .851-.101 1.164-.388.554-.523.594-1.747.594-2.245 0-1.03-.18-1.595-.493-1.95-.367-.43-.86-.497-1.39-.497H58.65c-.453 0-.734.194-.883.37-.227.28-.266.684-.266.98v5.798h2.133l.008-.009zm0-3.84v-1.114c0-.152.031-.422.367-.422h1.18c.242 0 .492 0 .672.16.172.153.188.38.188.566 0 .296-.063.498-.172.625-.18.202-.446.185-.711.185h-1.532.008zm3.883 3.84h2.25l.524-1.468h2.383l.524 1.468h2.25l-2.446-6.363c-.312-.793-.883-.87-1.515-.87-1.024 0-1.305.338-1.516.87l-2.446 6.363h-.008zm3.876-4.911c.016-.051.055-.152.086-.152.031 0 .062.1.086.152l.594 1.806h-1.36l.594-1.806zm7.313 4.911V19.07h2.36v-1.78h-6.86v1.78h2.36v5.367h2.14zm6.188-7.232c-1 0-2.18.033-2.89.734-.72.717-.75 1.958-.75 2.92 0 .937.03 2.194.75 2.92.703.7 1.906.734 2.89.734.985 0 2.196-.033 2.891-.734.719-.726.75-1.983.75-2.92 0-.962-.031-2.203-.75-2.92-.71-.7-1.89-.734-2.89-.734zm-1.445 3.654c0-.59.008-.979.242-1.359.281-.472.648-.523 1.203-.523s.907.05 1.204.523c.257.397.242.735.242 1.359 0 .574 0 .97-.242 1.359-.29.472-.641.523-1.204.523-.539 0-.914-.05-1.203-.523-.219-.355-.242-.794-.242-1.359zm7.977 3.57v-2.06h2.79c.359 0 .851-.1 1.164-.387.554-.524.594-1.748.594-2.246 0-1.03-.18-1.595-.493-1.949-.367-.43-.86-.498-1.39-.498h-3.657c-.453 0-.734.194-.883.371-.227.279-.266.684-.266.98v5.797h2.133l.008-.008zm0-3.84v-1.114c0-.152.032-.422.367-.422h1.18c.243 0 .493 0 .672.16.172.152.188.38.188.566 0 .295-.063.498-.172.624-.18.203-.445.186-.711.186h-1.532.008zm14.181-3.308h-2.133v2.531h-2.398V17.28H94.95v7.148h2.133v-2.836h2.398v2.836h2.133V17.28zm6.814 7.148v-1.739h-3.235c-.133 0-.305.009-.406-.093-.047-.042-.094-.126-.094-.261v-.777h3.61v-1.552h-3.61v-.54c0-.093 0-.254.101-.347a.533.533 0 0 1 .329-.1h3.273v-1.74h-4.758c-.234 0-.555.043-.805.288-.242.244-.281.54-.281.818v4.904c0 .337 0 .624.305.894.258.228.531.245.804.245h4.767zm.75-1.78h-.649v1.78h7.923v-1.78h-.664l-1.774-4.643c-.133-.354-.406-.81-1.523-.81-1.118 0-1.391.447-1.524.81l-1.789 4.642zm3.203-3.107c.016-.059.047-.185.102-.185.054 0 .086.118.101.185l1.063 3.106h-2.328l1.054-3.106h.008zm4.446 3.748c0 .278.086.59.242.793.297.354.688.337.985.337h3.461c.57 0 1.063 0 1.484-.497.407-.473.399-1.038.399-1.503 0-.439-.008-.894-.359-1.266a1.28 1.28 0 0 0-.782-.371v-.042c.274-.017.469-.135.664-.355.305-.354.329-.725.329-1.114 0-.472-.047-1.122-.415-1.527-.375-.43-.961-.473-1.437-.473h-3.594c-.282 0-.586.152-.75.355-.141.177-.227.455-.227.793v4.87zm2.133-3.267v-.582c0-.11-.008-.21.086-.304.086-.084.172-.084.273-.084h1.219c.141 0 .352 0 .485.143a.498.498 0 0 1 .101.304.818.818 0 0 1-.062.33c-.117.194-.328.194-.508.194h-1.594zm1.664 1.553c.18 0 .407 0 .547.203a.567.567 0 0 1 .086.304c0 .143-.055.337-.125.422-.039.05-.164.143-.57.143h-1.133c-.102 0-.313 0-.399-.101-.047-.06-.078-.186-.078-.43v-.54h1.672zm10.728 2.853v-5.46c0-.583-.055-1.764-1.571-1.764-.39 0-1.007.042-1.429.835l-1.821 3.444c-.086.16-.133.253-.187.253-.118 0-.118-.152-.118-.245v-.11l.094-4.093h-2.172V22.8c0 .86.172 1.713 1.477 1.713.914 0 1.25-.388 1.43-.726l1.883-3.468c.132-.236.187-.346.242-.346.094 0 .094.135.094.261l-.094 4.195h2.172zm.281 0h2.586l1.61-2.718c.227-.38.391-.692.391-.979 0-.253-.164-.54-.305-.793l-1.485-2.658h-2.461l1.891 2.937c.117.177.258.354.258.531 0 .11-.055.279-.321.65l-2.164 3.021v.009zm11.72 0l-2.164-3.021c-.266-.38-.32-.54-.32-.65 0-.178.14-.355.257-.532l1.93-2.937h-2.461l-1.524 2.659c-.179.32-.304.573-.304.793 0 .287.164.599.39.979l1.61 2.717h2.594l-.008-.008zm-6.93 0h2.133V17.28h-2.133v7.148zm14.415 0v-5.46c0-.583-.054-1.764-1.57-1.764-.391 0-1.008.042-1.43.835l-1.82 3.444c-.086.16-.133.253-.188.253-.117 0-.117-.152-.117-.245v-.11l.094-4.093h-2.173V22.8c0 .86.172 1.713 1.477 1.713.914 0 1.25-.388 1.43-.726l1.883-3.468c.133-.236.188-.346.242-.346.094 0 .094.135.094.261l-.094 4.195h2.172zm7.829-4.33c.055-.194.094-.253.133-.253.039 0 .086.043.086.237l-.078 4.346h2.156v-5.975c0-.44-.125-1.258-1.625-1.258-.57 0-1.359.068-1.703 1.182l-1.07 3.468c-.016.068-.125.33-.196.33-.078 0-.18-.254-.195-.33l-1.071-3.468c-.343-1.114-1.132-1.182-1.695-1.182-.344 0-1.625 0-1.625 1.258v5.975h2.148l-.062-4.346c0-.068-.008-.237.078-.237.047 0 .094.118.133.253l1.023 3.452c.149.523.344.962 1.274.962.938 0 1.125-.439 1.274-.962l1.023-3.452h-.008zm6.696-2.903c-1 0-2.18.034-2.891.735-.718.717-.75 1.957-.75 2.92 0 .936.032 2.194.75 2.92.704.7 1.907.734 2.891.734.985 0 2.196-.034 2.891-.734.719-.726.75-1.984.75-2.92 0-.963-.031-2.203-.75-2.92-.711-.701-1.891-.735-2.891-.735zm-1.445 3.655c0-.591.008-.98.242-1.36.281-.472.649-.522 1.203-.522.555 0 .907.05 1.204.523.257.396.242.734.242 1.359 0 .573 0 .97-.242 1.358-.29.473-.641.524-1.204.524-.539 0-.914-.051-1.203-.524-.219-.354-.242-.793-.242-1.358zm11.446 3.57v-1.781h-1.836c-.711 0-1.32 0-1.609-.566-.055-.118-.164-.388-.164-1.181 0-.346.031-.929.218-1.283.297-.574.813-.566 1.516-.566h1.766v-1.78h-2.797c-.75 0-1.711.093-2.313.928-.469.642-.578 1.544-.578 2.735 0 1.367.211 2.076.602 2.607.539.726 1.226.878 2.258.878h2.93l.007.008zm4.688 0v-5.368h2.36v-1.78h-6.86v1.78h2.36v5.367h2.14zm9.947 0v-5.46c0-.583-.055-1.765-1.571-1.765-.39 0-1.008.042-1.43.836l-1.82 3.443c-.086.16-.133.253-.188.253-.117 0-.117-.152-.117-.244v-.11l.094-4.093h-2.172v5.51c0 .861.172 1.714 1.477 1.714.914 0 1.25-.388 1.429-.726l1.883-3.469c.133-.236.188-.346.243-.346.093 0 .093.135.093.262l-.093 4.194H190zM38.728 7.037v.642H37.72c-.915 0-1.587.042-1.986.742-.102.194-.36.734-.36 2.093 0 .624.055 1.57.297 2.084.36.784 1.095.835 1.79.835h1.275v.743h2.135v-.743h1.274c.688 0 1.431-.05 1.791-.835.235-.507.297-1.46.297-2.084 0-1.359-.258-1.899-.36-2.093-.398-.7-1.07-.742-1.986-.742H40.88v-.642h-2.15zm0 4.624h-.187c-.547 0-.782-.185-.9-.498a1.808 1.808 0 0 1-.078-.59c0-.372.032-.566.086-.692.133-.33.454-.422.814-.422h.265v2.202zm2.135 0V9.46h.266c.36 0 .68.093.813.422.055.135.086.329.086.692 0 .244-.015.43-.078.59-.117.321-.352.498-.9.498h-.187zm9.993 2.523v-1.738h-3.237c-.133 0-.305.008-.407-.093-.047-.042-.094-.127-.094-.261v-.777h3.613V9.763h-3.613v-.54c0-.093 0-.253.102-.346a.531.531 0 0 1 .328-.101h3.277V7.037h-4.762c-.235 0-.555.043-.806.287-.242.245-.281.54-.281.819v4.902c0 .338 0 .624.305.894.258.228.532.245.805.245h4.77zm.75-1.772h-.648v1.772h7.928v-1.772h-.664l-1.775-4.64c-.133-.355-.407-.81-1.525-.81-1.118 0-1.392.447-1.525.81l-1.79 4.64zm3.206-3.105c.016-.059.047-.186.102-.186.055 0 .086.119.102.186l1.055 3.105h-2.33l1.056-3.105h.016zm10.322 4.877v-1.738h-3.237c-.133 0-.305.008-.407-.093-.047-.042-.094-.127-.094-.261v-.777h3.613V9.763h-3.613v-.54c0-.093 0-.253.102-.346a.531.531 0 0 1 .328-.101h3.277V7.037H60.34c-.235 0-.555.043-.806.287-.242.245-.281.54-.281.819v4.902c0 .338 0 .624.305.894.258.228.532.245.805.245h4.77zm2.8 0v-2.059h2.79c.36 0 .853-.101 1.166-.388.555-.523.594-1.746.594-2.244 0-1.03-.18-1.595-.493-1.95-.367-.43-.86-.497-1.391-.497h-3.66c-.453 0-.735.194-.883.371-.227.279-.266.684-.266.979v5.796h2.134l.008-.008zm0-3.84V9.232c0-.152.03-.422.367-.422h1.18c.243 0 .493 0 .673.16.172.152.188.38.188.566 0 .295-.063.498-.173.624-.18.203-.445.186-.711.186h-1.533.008zm3.885 3.84h2.252l.524-1.468h2.385l.524 1.468h2.252l-2.448-6.362c-.312-.793-.883-.869-1.517-.869-1.024 0-1.305.338-1.516.87l-2.448 6.361h-.008zm3.879-4.91c.015-.051.054-.153.086-.153.03 0 .062.102.086.152l.594 1.806h-1.36l.594-1.806zm6.13 4.91l1.595-4.725c.016-.042.055-.177.102-.177.047 0 .086.135.101.177l1.595 4.725h2.268l-2.541-6.488c-.274-.692-1.025-.735-1.431-.735-.407 0-1.157.043-1.431.735l-2.541 6.488h2.283zm5.864-7.147v5.797c0 .33.04.7.274 1.004.14.177.39.346.672.346h4.105c.712 0 1.142-.405 1.322-.692.266-.43.313-1.055.313-1.552 0-.507-.04-1.013-.258-1.502-.344-.768-.939-.819-1.322-.819h-2.971V7.037h-2.135zm3.683 4.194c.258 0 .415-.009.547.042.235.101.258.32.258.498 0 .337-.117.506-.219.574-.125.084-.289.059-.625.059h-1.11c-.125 0-.274 0-.352-.11-.055-.084-.055-.21-.055-.32v-.743h1.556zm10.439-4.194h-2.135V9.57h-2.4V7.037h-2.135v7.147h2.135v-2.835h2.4v2.835h2.135V7.037zm.946 0v5.797c0 .33.039.7.274 1.004.14.177.39.346.672.346h4.105c.712 0 1.142-.405 1.322-.692.265-.43.312-1.055.312-1.552 0-.507-.039-1.013-.258-1.502-.344-.768-.938-.819-1.321-.819h-2.971V7.037h-2.135zm3.683 4.194c.258 0 .414-.009.547.042.235.101.258.32.258.498 0 .337-.117.506-.219.574-.125.084-.297.059-.625.059h-1.111c-.125 0-.273 0-.352-.11-.054-.084-.054-.21-.054-.32v-.743h1.556zm5.747 2.953V7.037h-2.135v7.147h2.135zm8.155 0v-5.46c0-.581-.055-1.763-1.571-1.763-.391 0-1.009.043-1.431.836l-1.822 3.442c-.086.16-.133.253-.188.253-.125 0-.117-.185-.117-.354l.094-4.092h-2.174v5.51c0 .86.172 1.712 1.478 1.712.915 0 1.251-.388 1.431-.725l1.884-3.468c.133-.236.188-.346.242-.346.094 0 .094.135.094.262l-.094 4.193h2.174zm-6.091-9.062c.141.447.461 1.038.845 1.35.414.338 1.04.49 1.618.49.579 0 1.204-.152 1.619-.49.375-.304.703-.894.844-1.35h-1.337c-.062.152-.188.38-.328.498-.188.16-.532.253-.798.253s-.586-.093-.782-.253a1.583 1.583 0 0 1-.344-.498h-1.337z" fill="#333"/></symbol><symbol fill="none" viewBox="0 0 112 15" id="firm-oss" xmlns="http://www.w3.org/2000/svg"><path d="M6.09.77c1.58 0 2.87.485 3.87 1.455 1.04 1.01 1.56 2.27 1.56 3.78 0 1.49-.52 2.74-1.56 3.75-1.01.98-2.3 1.47-3.87 1.47-1.58 0-2.88-.49-3.9-1.47a4.963 4.963 0 0 1-1.155-1.65 5.393 5.393 0 0 1 .015-4.14c.29-.69.665-1.265 1.125-1.725C3.155 1.26 4.46.77 6.09.77zM6.075 2.9c-.89 0-1.62.285-2.19.855C3.295 4.325 3 5.08 3 6.02c0 .9.305 1.65.915 2.25.58.55 1.295.825 2.145.825.91 0 1.65-.285 2.22-.855.58-.56.87-1.305.87-2.235 0-.92-.29-1.67-.87-2.25-.59-.57-1.325-.855-2.205-.855zm9.068 7.335v4.2h-2.16V4.31h2.16v.795c.52-.68 1.215-1.02 2.085-1.02.95 0 1.74.315 2.37.945.67.67 1.005 1.54 1.005 2.61 0 1.08-.355 1.975-1.065 2.685-.6.6-1.355.9-2.265.9-.95 0-1.66-.33-2.13-.99zm1.56-4.29c-.47 0-.87.165-1.2.495-.34.34-.51.75-.51 1.23 0 .45.16.845.48 1.185.34.34.75.51 1.23.51.44 0 .825-.155 1.155-.465.35-.33.525-.755.525-1.275 0-.49-.17-.895-.51-1.215-.33-.31-.72-.465-1.17-.465zm7.18.795h2.925c-.08-.32-.225-.58-.435-.78-.27-.25-.61-.375-1.02-.375-.44 0-.805.145-1.095.435-.2.21-.325.45-.375.72zm4.92 1.065v.225h-4.995c0 .46.135.84.405 1.14.26.28.63.42 1.11.42.36 0 .65-.065.87-.195.17-.09.325-.275.465-.555l2.04.21c-.23.73-.66 1.29-1.29 1.68-.55.33-1.255.495-2.115.495-1.14 0-2.03-.32-2.67-.96-.67-.67-1.005-1.53-1.005-2.58 0-1.06.34-1.94 1.02-2.64.64-.64 1.495-.96 2.565-.96 1.13 0 2.015.335 2.655 1.005.63.67.945 1.575.945 2.715zm7.888-3.495V11h-2.16V6.05h-1.755v2.055c0 1.02-.22 1.78-.66 2.28-.43.47-1.045.704-1.845.704-.29 0-.57-.034-.84-.104v-1.71c.46.13.805.065 1.035-.195.18-.24.27-.595.27-1.065V4.31h5.955zm41.917 3.72v2.655c-.71.36-1.445.54-2.205.54-1.63 0-2.94-.486-3.93-1.455-1.04-1.01-1.56-2.275-1.56-3.795 0-1.5.52-2.755 1.56-3.765.99-.96 2.235-1.44 3.735-1.44.74 0 1.54.185 2.4.555v2.67c-.67-.71-1.45-1.065-2.34-1.065-.82 0-1.5.26-2.04.78-.63.61-.945 1.38-.945 2.31 0 .91.29 1.645.87 2.205.56.56 1.28.84 2.16.84.83 0 1.595-.345 2.295-1.035zm6.637-1.98h-1.8V11h-2.16V6.05h-1.8V4.31h5.76v1.74zm3.126 4.185v4.2h-2.16V4.31h2.16v.795c.52-.68 1.215-1.02 2.085-1.02.95 0 1.74.315 2.37.945.67.67 1.005 1.54 1.005 2.61 0 1.08-.355 1.975-1.065 2.685-.6.6-1.355.9-2.265.9-.95 0-1.66-.33-2.13-.99zm1.56-4.29c-.47 0-.87.165-1.2.495-.34.34-.51.75-.51 1.23 0 .45.16.845.48 1.185.34.34.75.51 1.23.51.44 0 .825-.155 1.155-.465.35-.33.525-.755.525-1.275 0-.49-.17-.895-.51-1.215-.33-.31-.72-.465-1.17-.465zm11.77-.78c.67.67 1.005 1.5 1.005 2.49 0 .99-.335 1.82-1.005 2.49-.72.72-1.695 1.08-2.925 1.08-1.23 0-2.205-.36-2.925-1.08-.67-.67-1.005-1.5-1.005-2.49 0-.99.335-1.82 1.005-2.49.72-.72 1.695-1.08 2.925-1.08 1.23 0 2.205.36 2.925 1.08zm-1.71 1.23c-.32-.32-.725-.48-1.215-.48-.49 0-.895.16-1.215.48-.33.33-.495.75-.495 1.26s.165.93.495 1.26c.32.32.73.48 1.23.48.48 0 .88-.16 1.2-.48.33-.33.495-.75.495-1.26s-.165-.93-.495-1.26zm4.062-2.085h2.16v3.825l2.85-3.825h2.01V11h-2.16V7.114l-2.85 3.884h-2.01V4.31zm4.725-3.285l1.5.585c-.19.56-.51.985-.96 1.275-.43.28-1.015.42-1.755.42s-1.325-.14-1.755-.42c-.45-.29-.77-.715-.96-1.275l1.5-.585c.06.29.19.52.39.69.21.18.485.27.825.27.34 0 .615-.09.825-.27.2-.17.33-.4.39-.69z" fill="#000"/><path d="M45.695 8.26v2.655c-.71.36-1.445.54-2.205.54-1.63 0-2.94-.485-3.93-1.455C38.52 8.99 38 7.725 38 6.205c0-1.5.52-2.755 1.56-3.765.99-.96 2.235-1.44 3.735-1.44.74 0 1.54.185 2.4.555v2.67c-.67-.71-1.45-1.065-2.34-1.065-.82 0-1.5.26-2.04.78-.63.61-.945 1.38-.945 2.31 0 .91.29 1.645.87 2.205.56.56 1.28.84 2.16.84.83 0 1.595-.345 2.295-1.035zm6.727-2.97v-.75h2.16v6.69h-2.16v-.81c-.45.69-1.11 1.035-1.98 1.035-1.03 0-1.865-.34-2.505-1.02-.65-.69-.975-1.525-.975-2.505 0-1.11.345-2.01 1.035-2.7.61-.61 1.385-.915 2.325-.915.92 0 1.62.325 2.1.975zm-1.56.885c-.47 0-.865.16-1.185.48-.33.33-.495.735-.495 1.215 0 .48.15.88.45 1.2.33.35.755.525 1.275.525.44 0 .815-.155 1.125-.465.35-.33.525-.75.525-1.26s-.165-.92-.495-1.23c-.32-.31-.72-.465-1.2-.465zm5.395-1.635h2.16v3.825l2.85-3.825h2.01v6.69h-2.16V7.345l-2.85 3.885h-2.01V4.54zm4.725-3.285l1.5.585c-.19.56-.51.985-.96 1.275-.43.28-1.015.42-1.755.42s-1.325-.14-1.755-.42c-.45-.29-.77-.715-.96-1.275l1.5-.585c.06.29.19.52.39.69.21.18.485.27.825.27.34 0 .615-.09.825-.27.2-.17.33-.4.39-.69zm9.016 5.025h-1.8v4.95h-2.16V6.28h-1.8V4.54h5.76v1.74z" fill="#F10000"/></symbol><symbol viewBox="0 0 33 30" id="icon-cake" xmlns="http://www.w3.org/2000/svg"><path d="M2.5 14v7h2v-2.5l1-1.5 2 .5V22h2l1-5h2l.5 2.5h1.5L16 17h1.5l.5 3.5h2l1-3.5h1.5l1 2.5H25l1-2.5 2 .5.5 3.5h2v-7h-28z" fill="#5EC1BB"/><path d="M30.143 22.048c.69-.28 1.181-.995 1.181-1.83V15c0-1.079-.819-1.957-1.826-1.957H26.49V8.5a1.33 1.33 0 0 0-.349-.898c.454-.543.788-1.466.176-2.948-.43-1.039-1.176-1.994-1.583-2.471a.641.641 0 0 0-.976 0c-1.934 2.267-2.43 4.174-1.417 5.405a1.328 1.328 0 0 0-.362.912v4.543h-3.223v-6.5c0-.346-.133-.66-.35-.897.455-.543.789-1.467.177-2.948-.43-1.04-1.177-1.995-1.584-2.472a.641.641 0 0 0-.975 0c-1.935 2.267-2.43 4.174-1.418 5.405a1.329 1.329 0 0 0-.362.913v6.5h-3.222V8.5c0-.346-.133-.661-.35-.898.455-.543.788-1.466.176-2.948-.43-1.039-1.176-1.994-1.583-2.471a.641.641 0 0 0-.976 0C6.355 4.45 5.86 6.357 6.872 7.587a1.329 1.329 0 0 0-.362.913v4.543H3.502c-1.007 0-1.826.878-1.826 1.957v5.217c0 .836.492 1.55 1.181 1.83v5.997c0 .228.038.448.105.652h-.45a.648.648 0 0 0-.645.652c0 .36.289.652.644.652h27.977a.648.648 0 0 0 .645-.652.648.648 0 0 0-.645-.652h-.45a2.09 2.09 0 0 0 .105-.652v-5.996zm-5.9-18.396c.775 1.065 1.522 2.512.852 3.175a1.199 1.199 0 0 1-.848.347h-.009a1.174 1.174 0 0 1-.836-.341c-.743-.752.151-2.252.841-3.181zM23.268 8.5c0-.01.01-.022.021-.022h1.891c.01 0 .021.012.021.022v4.543h-1.933V8.5zm-6.76-6.805c.776 1.065 1.523 2.513.852 3.176a1.198 1.198 0 0 1-.848.346h-.008a1.174 1.174 0 0 1-.837-.341c-.742-.751.152-2.252.842-3.181zm.959 4.849v6.5h-1.934v-6.5c0-.01.011-.022.022-.022h1.89c.01 0 .022.011.022.022zM8.774 3.65c.776 1.066 1.522 2.513.852 3.176a1.199 1.199 0 0 1-.848.347h-.009a1.174 1.174 0 0 1-.836-.342c-.743-.75.151-2.251.841-3.18zM7.8 8.501c0-.011.01-.023.021-.023h1.891c.01 0 .021.012.021.022v4.543H7.8V8.5zm21.054 14.086h-2a.648.648 0 0 0-.644.653c0 .36.288.652.644.652h2v4.152c0 .353-.245.651-.536.652H4.683c-.29 0-.537-.3-.537-.652v-.5h2a.648.648 0 0 0 .645-.652.648.648 0 0 0-.644-.652h-2v-4.192c.69-.28 1.181-.995 1.181-1.83v-1.941c0-.433.306-.797.668-.797.363 0 .669.364.669.797v2.677c0 1.16.878 2.102 1.957 2.102 1.08 0 1.958-.943 1.958-2.102v-2.677c0-.433.306-.797.668-.797.363 0 .669.364.669.797v.166c0 1.16.878 2.102 1.957 2.102 1.08 0 1.957-.943 1.957-2.102v-.166c0-.433.307-.797.669-.797.362 0 .668.364.668.797v1.373c0 1.159.879 2.101 1.958 2.101 1.08 0 1.957-.942 1.957-2.101v-1.373c0-.433.306-.797.669-.797.362 0 .668.364.668.797v.166c0 1.16.878 2.102 1.957 2.102 1.08 0 1.958-.943 1.958-2.102v-.166c0-.433.306-.797.668-.797.363 0 .669.364.669.797v1.94c0 .836.492 1.551 1.181 1.83v.54zm1.182-2.37c0 .354-.246.653-.537.653-.291 0-.537-.3-.537-.653v-1.94c0-1.16-.878-2.102-1.957-2.102-1.08 0-1.958.943-1.958 2.101v.167c0 .432-.306.797-.668.797-.363 0-.669-.365-.669-.797v-.167c0-1.158-.878-2.1-1.957-2.1-1.08 0-1.958.942-1.958 2.1v1.374c0 .432-.306.797-.668.797-.362 0-.668-.365-.668-.797v-1.373c0-1.16-.879-2.102-1.958-2.102-1.08 0-1.957.943-1.957 2.101v.167c0 .432-.306.797-.669.797-.362 0-.668-.365-.668-.797v-.167c0-1.158-.878-2.1-1.958-2.1-1.079 0-1.957.942-1.957 2.1v2.678c0 .432-.306.797-.668.797-.363 0-.669-.365-.669-.797v-2.678c0-1.158-.878-2.1-1.957-2.1-1.08 0-1.958.942-1.958 2.1v1.941c0 .354-.246.653-.537.653-.291 0-.537-.3-.537-.653V15c0-.353.246-.652.537-.652h25.996c.291 0 .537.299.537.652v5.217zm2.32 8.479h-.015a.648.648 0 0 0-.644.652c0 .36.288.652.644.652h.015a.648.648 0 0 0 .645-.652.648.648 0 0 0-.645-.652zm-31.695 0H.645a.648.648 0 0 0-.645.652c0 .36.289.652.645.652H.66a.648.648 0 0 0 .644-.652.648.648 0 0 0-.644-.652zm7.354-2.456H8a.648.648 0 0 0-.645.652c0 .36.289.652.645.652h.015a.648.648 0 0 0 .644-.652.648.648 0 0 0-.644-.652zM25 22.588h-.015a.648.648 0 0 0-.644.652c0 .36.288.652.644.652H25a.648.648 0 0 0 .645-.652.648.648 0 0 0-.645-.652zm-8.578-.326h-1.225a.648.648 0 0 0-.644.652c0 .36.288.652.644.652h1.225a.648.648 0 0 0 .645-.652.648.648 0 0 0-.645-.652zm-4.64 1.859h-.839a.648.648 0 0 0-.644.652c0 .36.288.652.644.652h.838a.648.648 0 0 0 .645-.652.648.648 0 0 0-.645-.652zm14.372 2.119h-1.482a.648.648 0 0 0-.644.652c0 .36.288.652.644.652h1.482a.648.648 0 0 0 .645-.652.648.648 0 0 0-.645-.652zm-4.671-2.74h-.838a.648.648 0 0 0-.645.652c0 .36.289.652.645.652h.838a.648.648 0 0 0 .644-.652.648.648 0 0 0-.644-.652zm-3.61 2.739h-.838a.648.648 0 0 0-.644.652c0 .36.288.652.644.652h.838a.648.648 0 0 0 .645-.652.648.648 0 0 0-.645-.652z" fill="#7E8B9E"/></symbol><symbol viewBox="0 0 33 25" id="icon-car" xmlns="http://www.w3.org/2000/svg"><path fill-rule="evenodd" clip-rule="evenodd" d="M4 8h25l2 3.5V20l-1.5.5h-6V18h-14l.125 2.5H3l-1-1V11l2-3zm3 5.5a1.5 1.5 0 1 1-3 0 1.5 1.5 0 0 1 3 0zm22 0a1.5 1.5 0 1 1-3 0 1.5 1.5 0 0 1 3 0zm-19.5-1h14l-1 2H10l-.5-2z" fill="#5EC1BB"/><path d="M23.587 7.02h-1.18c-.306 0-.555.268-.555.598 0 .33.248.599.554.599h1.181c.306 0 .554-.268.554-.599 0-.33-.248-.598-.554-.598zm.146 4.943a1.109 1.109 0 0 0-.902-.476H10.169a1.11 1.11 0 0 0-.902.476 1.306 1.306 0 0 0-.208 1.06l.295 1.277c.128.551.584.936 1.11.936h12.071c.526 0 .983-.385 1.11-.936l.296-1.277c.086-.372.01-.758-.208-1.06zm-.866.77l-.296 1.277a.037.037 0 0 1-.036.03h-12.07a.038.038 0 0 1-.036-.03l-.296-1.277c-.001-.005-.004-.019.007-.034.011-.015.024-.015.03-.015h12.66c.006 0 .019 0 .03.015a.039.039 0 0 1 .007.034zm8.398-4.517c.957 0 1.735-.84 1.735-1.874 0-1.034-.778-1.875-1.735-1.875h-.59c-.863 0-1.58.684-1.713 1.576l-1.477-4.389C27.152.664 26.273 0 25.299 0H7.701c-.975 0-1.853.665-2.186 1.654l-1.477 4.39c-.133-.893-.85-1.577-1.712-1.577h-.591C.778 4.467 0 5.308 0 6.342c0 1.033.778 1.874 1.735 1.874h.59c.273 0 .531-.068.761-.19L1.82 9.736a3.326 3.326 0 0 0-.639 1.968v11.869c0 .681.513 1.236 1.144 1.236h1.772c.631 0 1.145-.555 1.145-1.236V20.98h22.516v2.593c0 .681.514 1.236 1.145 1.236h1.771c.631 0 1.145-.555 1.145-1.236V11.704c0-.712-.227-1.411-.64-1.968l-1.265-1.71c.23.122.488.19.76.19h.591zM2.325 7.02h-.59c-.346 0-.628-.304-.628-.678 0-.374.282-.678.628-.678h.59c.347 0 .628.304.628.678 0 .374-.281.678-.627.678zm1.81 16.553a.04.04 0 0 1-.038.04H2.325c-.02 0-.036-.018-.036-.04v-2.966c.354.236.771.373 1.218.373h.627v2.593zm18.899-3.79H9.966v-1.316c0-.022.017-.04.037-.04h12.994c.02 0 .037.018.037.04v1.316zm7.677 3.79c0 .022-.016.04-.037.04h-1.771c-.02 0-.037-.018-.037-.04V20.98h.627c.447 0 .864-.137 1.218-.373v2.966zm-.396-13.09c.256.346.396.78.396 1.221v6.763c0 .726-.546 1.316-1.218 1.316h-5.352v-1.316c0-.682-.513-1.236-1.144-1.236H10.003c-.63 0-1.144.554-1.144 1.236v1.316H3.507c-.672 0-1.218-.59-1.218-1.316v-6.762c0-.443.14-.876.396-1.221l1.678-2.268h15.68c.306 0 .554-.267.554-.598 0-.33-.248-.598-.553-.598H4.888l1.668-4.957c.174-.518.634-.867 1.145-.867h17.598c.51 0 .97.349 1.145.867l1.668 4.957H25.95c-.306 0-.554.268-.554.598 0 .33.248.598.554.598h2.687l1.678 2.268zm-.268-4.141c0-.374.281-.678.627-.678h.591c.346 0 .628.304.628.678 0 .374-.282.678-.628.678h-.59c-.347 0-.628-.304-.628-.678zM5.869 15.954c-.63 0-1.144.555-1.144 1.237s.513 1.236 1.144 1.236c.631 0 1.144-.554 1.144-1.236 0-.682-.513-1.237-1.144-1.237zm21.262 0c-.631 0-1.144.555-1.144 1.237s.513 1.236 1.144 1.236c.63 0 1.144-.554 1.144-1.236 0-.682-.513-1.237-1.144-1.237zM5.574 10.85c-1.12 0-2.03.984-2.03 2.194s.91 2.194 2.03 2.194c1.12 0 2.03-.985 2.03-2.194 0-1.21-.91-2.194-2.03-2.194zm0 3.19c-.509 0-.923-.446-.923-.996s.414-.997.923-.997c.509 0 .923.447.923.997s-.414.997-.923.997zm21.852-3.19c-1.12 0-2.03.984-2.03 2.194s.91 2.194 2.03 2.194c1.12 0 2.03-.985 2.03-2.194 0-1.21-.91-2.194-2.03-2.194zm0 3.19c-.509 0-.923-.446-.923-.996s.414-.997.923-.997c.509 0 .923.447.923.997s-.414.997-.923.997z" fill="#7E8B9E"/></symbol><symbol viewBox="0 0 33 36" id="icon-family" xmlns="http://www.w3.org/2000/svg"><path d="M12.5 27l2.5-2 1 1.5h2.5l1-1.5 2.5 2 .5 5-5.5 3.5-5-3.5.5-5z" fill="#5EC1BB"/><path d="M32.989 5.918a7.224 7.224 0 0 0-1.714-3.52l-.005-.006c-.454-.516-1.205-1.226-2.209-1.675l-.023-.01A7.04 7.04 0 0 0 25.948 0c-1.6 0-3.113.52-4.376 1.506l-.009.007c-1.085.855-1.802 2.077-1.89 2.233a7.281 7.281 0 0 0-.843 4.227.699.699 0 0 0 .367.547c.13.069.266.126.406.172a6.599 6.599 0 0 0 3.324 3.872 6.473 6.473 0 0 0-1.776 1.348.703.703 0 0 0 .03.987c.28.265.718.251.98-.03.248-.266.519-.502.811-.707.42 1.2 1.5 2.077 2.73 2.077h.104c1.232 0 2.312-.94 2.706-2.214a5.173 5.173 0 0 1 2.4 4.337v7.26l-6.303 4.125a.702.702 0 0 0-.204.967.69.69 0 0 0 .959.206l6.618-4.332a.7.7 0 0 0 .316-.587v-7.64a6.487 6.487 0 0 0-3.535-5.8 6.652 6.652 0 0 0 3.642-5.542c.195-.179.365-.389.501-.625a.702.702 0 0 0 .083-.476zm-7.183 8.924h-.103c-.83 0-1.53-.811-1.53-1.77a.71.71 0 0 0-.001-.037 6.53 6.53 0 0 0 3.11.058c-.053.945-.72 1.749-1.476 1.749zm.041-2.987a5.18 5.18 0 0 1-4.753-3.137 2.61 2.61 0 0 0 1.853-2.112c.413.054.832.08 1.253.08 1.41 0 2.767-.297 3.983-.868a2.595 2.595 0 0 0 2.74 1.868c-.489 2.375-2.585 4.17-5.076 4.17zm4.82-5.554a1.208 1.208 0 0 1-1.201-1.211V4.7a.7.7 0 0 0-.358-.611.687.687 0 0 0-.703.02c-1.22.772-2.674 1.18-4.205 1.18a8.293 8.293 0 0 1-1.769-.19.688.688 0 0 0-.582.14.701.701 0 0 0-.258.544v.424A1.208 1.208 0 0 1 20.178 7.4a5.87 5.87 0 0 1 .7-2.965c.006-.012.632-1.106 1.537-1.82.002 0 .005-.003.005-.003a5.684 5.684 0 0 1 3.528-1.214 5.675 5.675 0 0 1 2.55.596c.771.345 1.363.904 1.726 1.316l.012.014a5.825 5.825 0 0 1 1.332 2.564 1.2 1.2 0 0 1-.9.413zm-10.72 17.883a5.37 5.37 0 0 0 2.626-4.621 5.363 5.363 0 0 0-.639-2.546c-.9-1.673-2.656-2.812-4.673-2.812a5.31 5.31 0 0 0-4.719 2.9 5.363 5.363 0 0 0-.592 2.458 5.37 5.37 0 0 0 2.625 4.62 5.908 5.908 0 0 0-3.174 5.25v2.55a.7.7 0 0 0 .321.59l5.167 3.318a.688.688 0 0 0 .743 0l5.179-3.3a.7.7 0 0 0 .323-.594l-.012-2.567a5.929 5.929 0 0 0-3.175-5.246zm-2.686-8.582c1.206 0 2.287.552 3.008 1.418-.934.27-1.958.41-3.007.41-1.05 0-2.074-.14-3.008-.41a3.906 3.906 0 0 1 3.007-1.418zm-3.926 3.96c0-.454.077-.89.217-1.297 1.143.37 2.412.563 3.71.563a12.13 12.13 0 0 0 3.709-.563c.14.407.216.843.216 1.298 0 2.183-1.76 3.96-3.926 3.96-2.164 0-3.926-1.777-3.926-3.96zm5.156 5.214c-.086.66-.661 1.108-1.181 1.108h-.085c-.55 0-1.163-.47-1.242-1.12a5.263 5.263 0 0 0 2.508.012zm-1.228 9.698l-4.476-2.875v-2.165c0-1.537.77-2.94 2.016-3.768.433.997 1.454 1.616 2.422 1.616h.084c1.046 0 1.97-.687 2.37-1.64a4.54 4.54 0 0 1 2.057 3.795l.01 2.18-4.483 2.857zm-4.977-18.762a.703.703 0 0 0-.223-.962 6.421 6.421 0 0 0-.654-.36 6.556 6.556 0 0 0 2.215-1.864c.247.086.513.133.79.133 1.331 0 2.414-1.092 2.414-2.435V8.487c0-2.208-.836-4.3-2.354-5.888A8.341 8.341 0 0 0 8.211.002a8.375 8.375 0 0 0-5.755 2.491A8.44 8.44 0 0 0 0 8.487v1.737c0 1.343 1.083 2.436 2.415 2.436.276 0 .542-.047.79-.134a6.547 6.547 0 0 0 2.479 1.994 6.489 6.489 0 0 0-3.46 5.76v5.722a.7.7 0 0 0 .315.586l6.286 4.114a.69.69 0 0 0 .958-.206.703.703 0 0 0-.204-.966l-5.97-3.908v-5.341c0-1.618.747-3.102 1.997-4.06.429 1.255 1.53 2.198 2.748 2.198h.104c1.322 0 2.378-1.207 2.75-2.557l.122.075a.69.69 0 0 0 .955-.225zM4.129 5.947a5.043 5.043 0 0 0-.685 2.54v1.737a1.04 1.04 0 0 1-.454.86 1.016 1.016 0 0 1-.575.178 1.035 1.035 0 0 1-1.03-1.038V8.487c0-3.88 3.014-6.993 6.86-7.087a6.85 6.85 0 0 1 .45.004c3.783.151 6.746 3.262 6.746 7.083v1.737c0 .572-.461 1.038-1.029 1.038a1.017 1.017 0 0 1-.634-.222 1.04 1.04 0 0 1-.395-.816V8.487c0-2.467-1.822-4.6-4.238-4.96a.688.688 0 0 0-.533.145.701.701 0 0 0-.259.492c-.038.489-.126.97-.262 1.438H4.726a.692.692 0 0 0-.597.345zM8.458 17.02h-.104c-.783 0-1.552-.959-1.552-1.936 0-.06-.008-.12-.022-.177a6.571 6.571 0 0 0 3.184.021c-.047 1.017-.81 2.092-1.506 2.092zm-.044-3.305a5.138 5.138 0 0 1-4.085-2.009c.314-.411.5-.926.5-1.483V8.487c0-.515.11-1.022.317-1.487h3.446c.29 0 .549-.182.65-.457a8.5 8.5 0 0 0 .39-1.456 3.639 3.639 0 0 1 2.366 3.4v1.737c0 .557.187 1.072.5 1.483a5.138 5.138 0 0 1-4.084 2.009z" fill="#7E8B9E"/></symbol><symbol viewBox="0 0 54 37" id="icon-next" xmlns="http://www.w3.org/2000/svg"><path d="M53.264 16.732l-16.07-16a2.519 2.519 0 0 0-3.55 0c-.98.977-.98 2.56 0 3.536L45.427 16H2.511A2.506 2.506 0 0 0 0 18.5C0 19.88 1.124 21 2.51 21h42.917L33.644 32.732c-.98.977-.98 2.56 0 3.536A2.51 2.51 0 0 0 35.42 37a2.51 2.51 0 0 0 1.775-.732l16.07-16c.98-.977.98-2.56 0-3.536z"/></symbol><symbol viewBox="0 0 54 37" id="icon-prev" xmlns="http://www.w3.org/2000/svg"><path d="M.736 20.268l16.069 16c.98.976 2.57.976 3.55 0a2.49 2.49 0 0 0 0-3.536L8.574 21H51.49c1.386 0 2.51-1.12 2.51-2.5S52.876 16 51.49 16H8.572L20.356 4.268c.98-.977.98-2.56 0-3.536A2.51 2.51 0 0 0 18.58 0a2.51 2.51 0 0 0-1.775.732l-16.07 16c-.98.977-.98 2.56 0 3.536z"/></symbol><symbol viewBox="0 0 17 10" id="icon-scroll" xmlns="http://www.w3.org/2000/svg"><path fill-rule="evenodd" clip-rule="evenodd" d="M.252.23a.793.793 0 0 1 1.144.03L8.5 7.956 15.604.259a.793.793 0 0 1 1.144-.03.85.85 0 0 1 .03 1.178L9.086 9.741A.799.799 0 0 1 8.5 10a.799.799 0 0 1-.587-.26L.223 1.408A.85.85 0 0 1 .252.23z"/></symbol><symbol viewBox="0 0 16 17" id="icon-search" xmlns="http://www.w3.org/2000/svg"><path d="M15.757 15.484l-3.944-4.208a6.949 6.949 0 0 0 1.57-4.412C13.382 3.079 10.38 0 6.69 0 3.001 0 0 3.08 0 6.864s3.002 6.863 6.691 6.863a6.505 6.505 0 0 0 3.834-1.242l3.974 4.24a.856.856 0 0 0 1.234.025.913.913 0 0 0 .024-1.266zM6.69 1.791c2.727 0 4.946 2.275 4.946 5.073 0 2.797-2.219 5.073-4.946 5.073S1.746 9.66 1.746 6.864c0-2.798 2.218-5.073 4.945-5.073z"/></symbol><symbol viewBox="0 0 33 33" id="icon-smoke" xmlns="http://www.w3.org/2000/svg"><path fill-rule="evenodd" clip-rule="evenodd" d="M33 16.5C33 25.613 25.613 33 16.5 33S0 25.613 0 16.5 7.387 0 16.5 0 33 7.387 33 16.5zM8.623 26.206A12.5 12.5 0 1 1 24.377 6.794L8.623 26.206zm20.31-11C28.59 11.91 27 9.5 26.206 8.5L10.452 27.912c1.048.588 4.044 1.364 7.341 1.02a12.5 12.5 0 0 0 11.14-13.725z" fill="#5EC1BB"/><path d="M24.806 6.26C19.102 1.7 10.781 2.627 6.221 8.33c-4.56 5.705-3.633 14.026 2.071 18.586.304.233.739.18.978-.12L24.94 7.245a.703.703 0 0 0-.134-.984zm-11.21 12.885h-2.737v-2.701a.168.168 0 0 1 .127-.042h4.81l-2.2 2.742zm3.312-4.15h-5.936a1.47 1.47 0 0 0-1.52 1.407v2.721a1.47 1.47 0 0 0 1.52 1.407h1.498l-3.847 4.832C3.699 21.086 3.173 13.627 7.45 8.703a11.81 11.81 0 0 1 6.94-3.9 11.77 11.77 0 0 1 8.967 2.11l-6.45 8.082zm12.702-.703l.042.014A13.23 13.23 0 0 0 26.91 8.25a.703.703 0 0 0-.562-.26.703.703 0 0 0-.549.26L10.395 27.24a.703.703 0 0 0 .225 1.069c6.507 3.298 14.455.697 17.753-5.81a13.21 13.21 0 0 0 1.237-8.207zm-8.707 2.271l.126-.161h4.333v2.7a.161.161 0 0 1-.12.043H20.89l.014-2.582zm-1.407 1.738v.844h-.703l.703-.844zm3.869 7.96a11.8 11.8 0 0 1-4.755 1.935c-2.205.38-4.473.118-6.534-.752l5.584-6.893h7.568a1.47 1.47 0 0 0 1.52-1.406v-2.736a1.47 1.47 0 0 0-1.52-1.407h-3.101l4.22-5.162c3.71 5.358 2.376 12.71-2.983 16.421zM16.5 0C7.387 0 0 7.387 0 16.5S7.387 33 16.5 33 33 25.613 33 16.5C32.988 7.392 25.608.012 16.5 0zm0 31.593c-8.336 0-15.093-6.757-15.093-15.093S8.164 1.407 16.5 1.407 31.593 8.164 31.593 16.5c-.007 8.333-6.76 15.086-15.093 15.093zM9.576 10.052a.703.703 0 0 0-.918-.297v-.014a3.552 3.552 0 0 0-1.85 4.065 3.003 3.003 0 0 0-.527 2.11c.15.84.609 1.593 1.287 2.11a.703.703 0 0 0 .97-.12.703.703 0 0 0-.14-.984 2.046 2.046 0 0 1-.704-1.196 1.793 1.793 0 0 1 .436-1.336.703.703 0 0 0 .113-.654 2.215 2.215 0 0 1 1.055-2.729.703.703 0 0 0 .278-.955z" fill="#7E8B9E"/></symbol><symbol viewBox="0 0 120 50" id="logotip" xmlns="http://www.w3.org/2000/svg"><path d="M8.587 39.013H4V3.333h4.587v35.68zm32.273-4.8V17.947c0-.676-.106-1.12-.32-1.334-.177-.213-.622-.32-1.333-.32h-12.16c-.711 0-1.173.107-1.387.32-.177.214-.266.658-.266 1.334v16.266c0 .711.089 1.174.266 1.387.214.178.676.267 1.387.267h12.16c.711 0 1.156-.09 1.333-.267.214-.213.32-.676.32-1.387zM25.074 13.147H41.18c2.81 0 4.214 1.404 4.214 4.213V34.8c0 2.809-1.405 4.213-4.214 4.213H25.074c-2.81 0-4.214-1.404-4.214-4.213V17.36c0-2.809 1.405-4.213 4.214-4.213zm37.766 22.72h11.733c.64 0 1.103-.143 1.387-.427.285-.284.427-.764.427-1.44V18.16c0-.676-.142-1.156-.427-1.44-.284-.284-.747-.427-1.387-.427H62.84c-.676 0-1.12.107-1.333.32-.214.214-.32.658-.32 1.334v16.266c0 .711.106 1.174.32 1.387.213.178.657.267 1.333.267zm18.133 2.453h.054v4c0 2.809-1.405 4.213-4.214 4.213H57.507v-3.146h17.28c.675 0 1.12-.107 1.333-.32.213-.214.32-.658.32-1.334v-2.826h-.053v-1.6c-.463 1.137-1.44 1.706-2.934 1.706h-12.64c-2.809 0-4.213-1.404-4.213-4.213V17.36c0-2.809 1.404-4.213 4.213-4.213h12.64c1.494 0 2.471.569 2.934 1.706v-1.706h4.586V38.32zm31.21-4.107V17.947c0-.676-.106-1.12-.32-1.334-.177-.213-.622-.32-1.333-.32H98.37c-.711 0-1.173.107-1.387.32-.177.214-.266.658-.266 1.334v16.266c0 .711.089 1.174.266 1.387.214.178.676.267 1.387.267h12.16c.711 0 1.156-.09 1.333-.267.214-.213.32-.676.32-1.387zM96.397 13.147h16.106c2.809 0 4.214 1.404 4.214 4.213V34.8c0 2.809-1.405 4.213-4.214 4.213H96.397c-2.81 0-4.214-1.404-4.214-4.213V17.36c0-2.809 1.405-4.213 4.214-4.213z"/></symbol><symbol viewBox="0 0 12 12" id="modal-close" xmlns="http://www.w3.org/2000/svg"><path d="M11.414 2.414a1.414 1.414 0 1 0-2-2l-3.5 3.5-3.5-3.5a1.414 1.414 0 1 0-2 2l3.5 3.5-3.5 3.5a1.414 1.414 0 0 0 2 2l3.5-3.5 3.5 3.5a1.414 1.414 0 1 0 2-2l-3.5-3.5 3.5-3.5z"/></symbol><symbol viewBox="0 0 7 4" id="navbar-dropdown" xmlns="http://www.w3.org/2000/svg"><path d="M3.5 4a.488.488 0 0 1-.347-.144L.143.84a.492.492 0 0 1 0-.695.49.49 0 0 1 .694 0L3.5 2.814 6.163.144a.49.49 0 0 1 .693 0 .492.492 0 0 1 0 .695l-3.01 3.017A.488.488 0 0 1 3.5 4z"/></symbol><symbol viewBox="0 0 11 17" id="pagin-next" xmlns="http://www.w3.org/2000/svg"><path fill-rule="evenodd" clip-rule="evenodd" d="M.9.98A1.5 1.5 0 0 0 .98 3.1l5.816 5.4-5.817 5.4a1.5 1.5 0 0 0 2.042 2.2l7-6.5a1.5 1.5 0 0 0 0-2.2l-7-6.5A1.5 1.5 0 0 0 .9.98z"/></symbol><symbol viewBox="0 0 11 17" id="pagin-prev" xmlns="http://www.w3.org/2000/svg"><path fill-rule="evenodd" clip-rule="evenodd" d="M10.1.98a1.5 1.5 0 0 1-.08 2.12L4.205 8.5l5.817 5.4a1.5 1.5 0 0 1-2.042 2.2l-7-6.5a1.5 1.5 0 0 1 0-2.2l7-6.5a1.5 1.5 0 0 1 2.12.08z"/></symbol><symbol viewBox="0 0 59 58" id="soc-fb" xmlns="http://www.w3.org/2000/svg"><path d="M58.989 5a5 5 0 0 0-5-5H5.931a5 5 0 0 0-5 5v48a5 5 0 0 0 5 5h16.612V36.676h-4.536v-7.35h4.536v-4.424c0-3.14.765-5.517 2.294-7.13 1.53-1.613 4.047-2.42 7.551-2.42h6.057v7.35h-3.789c-.694 0-1.25.056-1.668.168-.417.113-.72.315-.907.608a2.44 2.44 0 0 0-.36.893c-.053.303-.08.73-.08 1.281v3.674h6.857l-.8 7.35H31.64V58h22.35a5 5 0 0 0 5-5V5z"/></symbol><symbol viewBox="0 0 59 58" id="soc-inst" xmlns="http://www.w3.org/2000/svg"><path d="M34.47 19.614c0-.676.552-1.228 1.229-1.228h3.088c.677 0 1.23.552 1.23 1.228v2.941c0 .676-.553 1.23-1.23 1.23h-3.088c-.677 0-1.23-.554-1.23-1.23v-2.94zm3.155 7.281h2.405v11.53c0 .597-.488 1.085-1.086 1.085H19.918a1.09 1.09 0 0 1-1.086-1.085v-11.53h2.51a7.964 7.964 0 0 0-.351 2.342c0 4.54 3.802 8.22 8.492 8.22 4.69 0 8.493-3.68 8.493-8.22 0-.813-.123-1.6-.35-2.342zm-13.63 2.046c0-2.934 2.457-5.312 5.488-5.312 3.03 0 5.487 2.378 5.487 5.312s-2.457 5.31-5.487 5.31c-3.03 0-5.487-2.376-5.487-5.31z"/><path fill-rule="evenodd" clip-rule="evenodd" d="M58.486 5a5 5 0 0 0-5-5H5.428a5 5 0 0 0-5 5v48a5 5 0 0 0 5 5h48.058a5 5 0 0 0 5-5V5zM39.611 15.353H19.303c-1.93 0-3.507 1.427-3.507 3.503v20.288c0 2.076 1.578 3.503 3.507 3.503H39.61c1.929 0 3.507-1.427 3.507-3.503V18.856c0-2.076-1.578-3.503-3.507-3.503z"/></symbol><symbol viewBox="0 0 59 58" id="soc-ok" xmlns="http://www.w3.org/2000/svg"><path d="M29.03 16.352a4.206 4.206 0 0 1 4.22 4.216 4.197 4.197 0 0 1-4.198 4.235 4.206 4.206 0 0 1-4.251-4.184 4.211 4.211 0 0 1 4.23-4.267z"/><path fill-rule="evenodd" clip-rule="evenodd" d="M0 5a5 5 0 0 1 5-5h48.059a5 5 0 0 1 5 5v48a5 5 0 0 1-5 5H5a5 5 0 0 1-5-5V5zm27.35 30.973c-2.646-.276-5.031-.927-7.074-2.525l-.148-.116a7.272 7.272 0 0 1-.598-.495c-.894-.86-.984-1.842-.276-2.855.605-.867 1.62-1.099 2.676-.601.205.096.4.217.586.346 3.806 2.615 9.034 2.687 12.855.118.378-.29.783-.527 1.252-.648.911-.234 1.762.101 2.25.898.56.912.553 1.8-.136 2.508-1.056 1.084-2.327 1.868-3.739 2.415-1.335.518-2.797.778-4.244.951l.146.16.026.028c.112.122.191.209.286.304l2.16 2.165a1203 1203 0 0 1 3.737 3.755c.667.674.807 1.51.44 2.295-.402.857-1.302 1.422-2.183 1.361-.559-.038-.995-.316-1.382-.706-.422-.426-.847-.848-1.273-1.271l-.188-.188-.048-.047c-.988-.982-1.975-1.963-2.937-2.97-.423-.442-.626-.359-1 .025a299.64 299.64 0 0 1-4.532 4.55c-.685.675-1.5.797-2.294.411-.844-.409-1.381-1.27-1.34-2.136.029-.586.317-1.033.719-1.434 1.508-1.506 3.012-3.014 4.517-4.523l1.306-1.309c.08-.08.156-.163.247-.262l.188-.204zM20.4 20.556c-.028 4.726 3.841 8.638 8.561 8.654 4.767.017 8.664-3.806 8.689-8.522.023-4.828-3.81-8.734-8.585-8.747-4.766-.013-8.639 3.838-8.666 8.615z"/></symbol><symbol viewBox="0 0 58 58" id="soc-tg" xmlns="http://www.w3.org/2000/svg"><path fill-rule="evenodd" clip-rule="evenodd" d="M3.412 0A3.412 3.412 0 0 0 0 3.412v51.176A3.412 3.412 0 0 0 3.412 58h51.176A3.412 3.412 0 0 0 58 54.588V3.412A3.412 3.412 0 0 0 54.588 0H3.412zm16.134 31.67l-8.648-3.37c-.878-.343-.886-1.638-.01-1.99l35.49-14.296c.752-.303 1.529.385 1.364 1.21L41.374 45.21c-.15.755-.998 1.098-1.597.644l-8.694-6.591a1.39 1.39 0 0 0-1.753.051l-4.82 4.103c-.56.478-1.403.212-1.617-.508l-3.347-11.24zm19.708-12.662l-16.9 10.869c-.648.417-.953 1.234-.744 1.998l1.827 6.704c.13.475.79.427.853-.064l.476-3.677c.089-.692.405-1.33.896-1.806l13.947-13.537c.261-.253-.051-.682-.355-.487z"/></symbol><symbol viewBox="0 0 59 58" id="soc-vk" xmlns="http://www.w3.org/2000/svg"><path fill-rule="evenodd" clip-rule="evenodd" d="M58.059 5a5 5 0 0 0-5-5H5a5 5 0 0 0-5 5v48a5 5 0 0 0 5 5h48.059a5 5 0 0 0 5-5V5zM47.47 38.611c.043.069.086.15.136.246.043.103.093.273.136.526.05.246.05.464-.007.663-.05.198-.222.375-.509.54-.28.164-.688.245-1.204.245l-5.237.076c-.33.068-.71.034-1.146-.096-.437-.13-.796-.273-1.068-.43l-.408-.233c-.409-.273-.889-.69-1.433-1.25a30.38 30.38 0 0 1-1.404-1.51 6.566 6.566 0 0 0-1.247-1.134c-.444-.3-.824-.403-1.154-.3a.944.944 0 0 0-.164.068c-.072.026-.187.122-.351.28a2.712 2.712 0 0 0-.437.574c-.137.225-.251.56-.352 1.01a5.83 5.83 0 0 0-.136 1.51c0 .2-.021.377-.071.54a1.077 1.077 0 0 1-.15.363l-.08.095c-.243.247-.601.39-1.081.43h-2.35a9.656 9.656 0 0 1-2.988-.32c-1.017-.267-1.913-.608-2.687-1.032a25.604 25.604 0 0 1-2.106-1.291c-.63-.438-1.11-.806-1.44-1.121l-.51-.472a11.963 11.963 0 0 1-.565-.587c-.236-.26-.724-.854-1.462-1.777a48.382 48.382 0 0 1-2.17-2.944c-.71-1.039-1.548-2.406-2.508-4.113a56.894 56.894 0 0 1-2.658-5.33 1.544 1.544 0 0 1-.122-.526c0-.143.021-.246.065-.314l.078-.117c.208-.245.595-.369 1.168-.369l5.603-.04c.165.027.322.068.473.13.15.054.265.109.33.164l.1.061c.222.143.387.348.494.622.272.655.58 1.325.939 2.022.35.697.63 1.23.838 1.592l.33.567c.393.779.78 1.455 1.146 2.03.372.573.702 1.018.996 1.338.286.322.573.568.845.752.272.185.502.274.695.274.193 0 .372-.034.552-.096a.317.317 0 0 0 .1-.096c.036-.055.122-.198.244-.43.129-.233.215-.54.279-.916.057-.375.122-.902.194-1.578.027-.29.043-.43.047-.57.005-.185-.01-.371-.047-.913a9.076 9.076 0 0 0-.187-1.42c-.093-.425-.193-.726-.286-.896l-.122-.233c-.344-.444-.924-.724-1.741-.84-.18-.027-.143-.184.1-.472a2.61 2.61 0 0 1 .774-.587c.723-.341 2.35-.499 4.886-.471 1.118.013 2.035.096 2.759.253.272.068.501.157.687.266a1.1 1.1 0 0 1 .423.471c.093.198.165.41.215.622.05.219.072.513.072.888 0 .376-.008.738-.022 1.073-.006.145-.012.133-.02.122-.008-.017-.018-.034-.03.295a43.507 43.507 0 0 0-.029 1.612c0 .144-.007.418-.021.82l-.003.136c-.006.339-.01.607-.004.8a7.4 7.4 0 0 0 .071.793c.043.3.122.553.237.759.114.205.265.361.458.478.094.017.188.037.286.06l.065.015c.122.027.301-.04.53-.212a6.33 6.33 0 0 0 .782-.67c.286-.28.637-.71 1.06-1.305.423-.594.888-1.29 1.39-2.097a31.108 31.108 0 0 0 2.192-4.386c.05-.13.122-.247.2-.343a.881.881 0 0 1 .223-.204l.079-.062.1-.048.265-.061c.18-.034.315-.041.408-.007l5.89-.04c.53-.07.967-.05 1.31.047.338.096.553.205.631.321l.122.191c.316.827-.709 2.74-3.066 5.733-.33.417-.774.97-1.333 1.66-1.06 1.298-1.676 2.153-1.841 2.556-.23.533-.136 1.058.286 1.578.23.273.781.806 1.655 1.599h.022l.021.02.022.02.043.042c1.92 1.7 3.224 3.143 3.905 4.311z"/></symbol><symbol viewBox="0 0 44 44" id="view" xmlns="http://www.w3.org/2000/svg"><path fill-rule="evenodd" clip-rule="evenodd" d="M43 22c0 11.598-9.402 21-21 21S1 33.598 1 22 10.402 1 22 1s21 9.402 21 21zm1 0c0 12.15-9.85 22-22 22S0 34.15 0 22 9.85 0 22 0s22 9.85 22 22zm-4.968 0c0 9.407-7.625 17.032-17.032 17.032S4.968 31.407 4.968 22 12.593 4.968 22 4.968 39.032 12.593 39.032 22zm-11.443.798h-4.79v4.79a.798.798 0 1 1-1.597 0v-4.79h-4.79a.798.798 0 1 1 0-1.597h4.79v-4.79a.798.798 0 0 1 1.596 0v4.79h4.79a.799.799 0 0 1 0 1.597z"/></symbol></svg>