<svg width="112" height="15" viewBox="0 0 112 15" fill="none" xmlns="http://www.w3.org/2000/svg">
<path d="M6.08988 0.769531C7.66988 0.769531 8.95988 1.25453 9.95988 2.22453C10.9999 3.23453 11.5199 4.49453 11.5199 6.00453C11.5199 7.49453 10.9999 8.74453 9.95988 9.75453C8.94988 10.7345 7.65988 11.2245 6.08988 11.2245C4.50988 11.2245 3.20988 10.7345 2.18988 9.75453C1.69988 9.29453 1.31488 8.74453 1.03488 8.10453C0.764883 7.45453 0.629883 6.76453 0.629883 6.03453C0.629883 5.33453 0.769883 4.64453 1.04988 3.96453C1.33988 3.27453 1.71488 2.69953 2.17488 2.23953C3.15488 1.25953 4.45988 0.769531 6.08988 0.769531ZM6.07488 2.89953C5.18488 2.89953 4.45488 3.18453 3.88488 3.75453C3.29488 4.32453 2.99988 5.07953 2.99988 6.01953C2.99988 6.91953 3.30488 7.66953 3.91488 8.26953C4.49488 8.81953 5.20988 9.09453 6.05988 9.09453C6.96988 9.09453 7.70988 8.80953 8.27988 8.23953C8.85988 7.67953 9.14988 6.93453 9.14988 6.00453C9.14988 5.08453 8.85988 4.33453 8.27988 3.75453C7.68988 3.18453 6.95488 2.89953 6.07488 2.89953Z" fill="black"/>
<path d="M15.1434 10.2345V14.4345H12.9834V4.30953H15.1434V5.10453C15.6634 4.42453 16.3584 4.08453 17.2284 4.08453C18.1784 4.08453 18.9684 4.39953 19.5984 5.02953C20.2684 5.69953 20.6034 6.56953 20.6034 7.63953C20.6034 8.71953 20.2484 9.61453 19.5384 10.3245C18.9384 10.9245 18.1834 11.2245 17.2734 11.2245C16.3234 11.2245 15.6134 10.8945 15.1434 10.2345ZM16.7034 5.94453C16.2334 5.94453 15.8334 6.10953 15.5034 6.43953C15.1634 6.77953 14.9934 7.18953 14.9934 7.66953C14.9934 8.11953 15.1534 8.51453 15.4734 8.85453C15.8134 9.19453 16.2234 9.36453 16.7034 9.36453C17.1434 9.36453 17.5284 9.20953 17.8584 8.89953C18.2084 8.56953 18.3834 8.14453 18.3834 7.62453C18.3834 7.13453 18.2134 6.72953 17.8734 6.40953C17.5434 6.09953 17.1534 5.94453 16.7034 5.94453Z" fill="black"/>
<path d="M23.8833 6.73953H26.8083C26.7283 6.41953 26.5833 6.15953 26.3733 5.95953C26.1033 5.70953 25.7633 5.58453 25.3533 5.58453C24.9133 5.58453 24.5483 5.72953 24.2583 6.01953C24.0583 6.22953 23.9333 6.46953 23.8833 6.73953ZM28.8033 7.80453V8.02953H23.8083C23.8083 8.48953 23.9433 8.86953 24.2133 9.16953C24.4733 9.44953 24.8433 9.58953 25.3233 9.58953C25.6833 9.58953 25.9733 9.52453 26.1933 9.39453C26.3633 9.30453 26.5183 9.11953 26.6583 8.83953L28.6983 9.04953C28.4683 9.77953 28.0383 10.3395 27.4083 10.7295C26.8583 11.0595 26.1533 11.2245 25.2933 11.2245C24.1533 11.2245 23.2633 10.9045 22.6233 10.2645C21.9533 9.59453 21.6183 8.73453 21.6183 7.68453C21.6183 6.62453 21.9583 5.74453 22.6383 5.04453C23.2783 4.40453 24.1333 4.08453 25.2033 4.08453C26.3333 4.08453 27.2183 4.41953 27.8583 5.08953C28.4883 5.75953 28.8033 6.66453 28.8033 7.80453Z" fill="black"/>
<path d="M36.6914 4.30953V10.9995H34.5314V6.04953H32.7764V8.10453C32.7764 9.12453 32.5564 9.88453 32.1164 10.3845C31.6864 10.8545 31.0714 11.0895 30.2714 11.0895C29.9814 11.0895 29.7014 11.0545 29.4314 10.9845V9.27453C29.8914 9.40453 30.2364 9.33953 30.4664 9.07953C30.6464 8.83953 30.7364 8.48453 30.7364 8.01453V4.30953H36.6914Z" fill="black"/>
<path d="M78.6081 8.02953V10.6845C77.8981 11.0445 77.1631 11.2245 76.4031 11.2245C74.7731 11.2245 73.4631 10.7395 72.4731 9.76953C71.4331 8.75953 70.9131 7.49453 70.9131 5.97453C70.9131 4.47453 71.4331 3.21953 72.4731 2.20953C73.4631 1.24953 74.7081 0.769531 76.2081 0.769531C76.9481 0.769531 77.7481 0.954531 78.6081 1.32453V3.99453C77.9381 3.28453 77.1581 2.92953 76.2681 2.92953C75.4481 2.92953 74.7681 3.18953 74.2281 3.70953C73.5981 4.31953 73.2831 5.08953 73.2831 6.01953C73.2831 6.92953 73.5731 7.66453 74.1531 8.22453C74.7131 8.78453 75.4331 9.06453 76.3131 9.06453C77.1431 9.06453 77.9081 8.71953 78.6081 8.02953Z" fill="black"/>
<path d="M85.2451 6.04953H83.4451V10.9995H81.2851V6.04953H79.4851V4.30953H85.2451V6.04953Z" fill="black"/>
<path d="M88.371 10.2345V14.4345H86.211V4.30953H88.371V5.10453C88.891 4.42453 89.586 4.08453 90.456 4.08453C91.406 4.08453 92.196 4.39953 92.826 5.02953C93.496 5.69953 93.831 6.56953 93.831 7.63953C93.831 8.71953 93.476 9.61453 92.766 10.3245C92.166 10.9245 91.411 11.2245 90.501 11.2245C89.551 11.2245 88.841 10.8945 88.371 10.2345ZM89.931 5.94453C89.461 5.94453 89.061 6.10953 88.731 6.43953C88.391 6.77953 88.221 7.18953 88.221 7.66953C88.221 8.11953 88.381 8.51453 88.701 8.85453C89.041 9.19453 89.451 9.36453 89.931 9.36453C90.371 9.36453 90.756 9.20953 91.086 8.89953C91.436 8.56953 91.611 8.14453 91.611 7.62453C91.611 7.13453 91.441 6.72953 91.101 6.40953C90.771 6.09953 90.381 5.94453 89.931 5.94453Z" fill="black"/>
<path d="M101.701 5.16453C102.371 5.83453 102.706 6.66453 102.706 7.65453C102.706 8.64453 102.371 9.47453 101.701 10.1445C100.981 10.8645 100.006 11.2245 98.7758 11.2245C97.5458 11.2245 96.5708 10.8645 95.8508 10.1445C95.1808 9.47453 94.8458 8.64453 94.8458 7.65453C94.8458 6.66453 95.1808 5.83453 95.8508 5.16453C96.5708 4.44453 97.5458 4.08453 98.7758 4.08453C100.006 4.08453 100.981 4.44453 101.701 5.16453ZM99.9908 6.39453C99.6708 6.07453 99.2658 5.91453 98.7758 5.91453C98.2858 5.91453 97.8808 6.07453 97.5608 6.39453C97.2308 6.72453 97.0658 7.14453 97.0658 7.65453C97.0658 8.16453 97.2308 8.58453 97.5608 8.91453C97.8808 9.23453 98.2908 9.39453 98.7908 9.39453C99.2708 9.39453 99.6708 9.23453 99.9908 8.91453C100.321 8.58453 100.486 8.16453 100.486 7.65453C100.486 7.14453 100.321 6.72453 99.9908 6.39453Z" fill="black"/>
<path d="M104.053 4.30953H106.213V8.13453L109.063 4.30953H111.073V10.9995H108.913V7.11453L106.063 10.9995H104.053V4.30953ZM108.778 1.02453L110.278 1.60953C110.088 2.16953 109.768 2.59453 109.318 2.88453C108.888 3.16453 108.303 3.30453 107.563 3.30453C106.823 3.30453 106.238 3.16453 105.808 2.88453C105.358 2.59453 105.038 2.16953 104.848 1.60953L106.348 1.02453C106.408 1.31453 106.538 1.54453 106.738 1.71453C106.948 1.89453 107.223 1.98453 107.563 1.98453C107.903 1.98453 108.178 1.89453 108.388 1.71453C108.588 1.54453 108.718 1.31453 108.778 1.02453Z" fill="black"/>
<path d="M45.695 8.26V10.915C44.985 11.275 44.25 11.455 43.49 11.455C41.86 11.455 40.55 10.97 39.56 10C38.52 8.99 38 7.725 38 6.205C38 4.705 38.52 3.45 39.56 2.44C40.55 1.48 41.795 1 43.295 1C44.035 1 44.835 1.185 45.695 1.555V4.225C45.025 3.515 44.245 3.16 43.355 3.16C42.535 3.16 41.855 3.42 41.315 3.94C40.685 4.55 40.37 5.32 40.37 6.25C40.37 7.16 40.66 7.895 41.24 8.455C41.8 9.015 42.52 9.295 43.4 9.295C44.23 9.295 44.995 8.95 45.695 8.26Z" fill="#F10000"/>
<path d="M52.422 5.29V4.54H54.582V11.23H52.422V10.42C51.972 11.11 51.312 11.455 50.442 11.455C49.412 11.455 48.577 11.115 47.937 10.435C47.287 9.745 46.962 8.91 46.962 7.93C46.962 6.82 47.307 5.92 47.997 5.23C48.607 4.62 49.382 4.315 50.322 4.315C51.242 4.315 51.942 4.64 52.422 5.29ZM50.862 6.175C50.392 6.175 49.997 6.335 49.677 6.655C49.347 6.985 49.182 7.39 49.182 7.87C49.182 8.35 49.332 8.75 49.632 9.07C49.962 9.42 50.387 9.595 50.907 9.595C51.347 9.595 51.722 9.44 52.032 9.13C52.382 8.8 52.557 8.38 52.557 7.87C52.557 7.36 52.392 6.95 52.062 6.64C51.742 6.33 51.342 6.175 50.862 6.175Z" fill="#F10000"/>
<path d="M56.2569 4.54H58.4169V8.365L61.2669 4.54H63.2769V11.23H61.1169V7.345L58.2669 11.23H56.2569V4.54ZM60.9819 1.255L62.4819 1.84C62.2919 2.4 61.9719 2.825 61.5219 3.115C61.0919 3.395 60.5069 3.535 59.7669 3.535C59.0269 3.535 58.4419 3.395 58.0119 3.115C57.5619 2.825 57.2419 2.4 57.0519 1.84L58.5519 1.255C58.6119 1.545 58.7419 1.775 58.9419 1.945C59.1519 2.125 59.4269 2.215 59.7669 2.215C60.1069 2.215 60.3819 2.125 60.5919 1.945C60.7919 1.775 60.9219 1.545 60.9819 1.255Z" fill="#F10000"/>
<path d="M69.998 6.28H68.198V11.23H66.038V6.28H64.238V4.54H69.998V6.28Z" fill="#F10000"/>
</svg>
