<svg width="33" height="36" viewBox="0 0 33 36" xmlns="http://www.w3.org/2000/svg"><path d="M12.5 27L15 25L16 26.5H18.5L19.5 25L22 27L22.5 32L17 35.5L12 32L12.5 27Z" fill="#5EC1BB"/><path d="M32.9887 5.91785C32.7522 4.60925 32.1595 3.39248 31.2746 2.39833C31.2729 2.39641 31.2712 2.3944 31.2695 2.39247C30.8162 1.87622 30.0651 1.16645 29.0611 0.716677L29.0382 0.706455C28.0692 0.23764 27.0293 0 25.9476 0C24.3479 0 22.8348 0.520886 21.5718 1.50648L21.5633 1.51312C20.4775 2.36836 19.761 3.59046 19.6723 3.74615C19.6683 3.75296 19.6644 3.75987 19.6607 3.76677C19.091 4.82025 18.79 6.01439 18.79 7.22015C18.79 7.47054 18.803 7.724 18.8288 7.97334C18.8528 8.20635 18.991 8.41167 19.1967 8.52026C19.327 8.58902 19.4631 8.64625 19.603 8.69151C20.1606 10.4132 21.3785 11.7901 22.9268 12.5644C22.263 12.9064 21.667 13.3585 21.1514 13.9115C20.8892 14.1926 20.9026 14.6349 21.1814 14.8994C21.4601 15.1638 21.8987 15.1502 22.1608 14.8691C22.4086 14.6033 22.6798 14.3673 22.9723 14.1625C23.3918 15.3612 24.4729 16.2395 25.7025 16.2395H25.8059C27.0377 16.2395 28.1177 15.2982 28.5124 14.0247C29.9756 14.9499 30.9117 16.5984 30.9117 18.3617V25.6219L24.6094 29.7469C24.2883 29.957 24.1969 30.3899 24.4053 30.7136C24.538 30.9199 24.7604 31.0322 24.9872 31.0322C25.1165 31.0322 25.2472 30.9958 25.3637 30.9195L31.9817 26.5878C32.1786 26.4589 32.2975 26.2382 32.2975 26.0015V18.3617C32.2975 15.8865 30.9276 13.6679 28.7626 12.5608C30.8129 11.5287 32.2627 9.44549 32.4047 7.0192C32.6003 6.84036 32.7703 6.63024 32.9063 6.39391C32.9892 6.25028 33.0184 6.0814 32.9887 5.91785ZM25.806 14.8417H25.7026C24.8734 14.8417 24.1728 14.0309 24.1728 13.0712C24.1728 13.0592 24.1725 13.0473 24.1719 13.0354C24.7092 13.1779 25.2711 13.2533 25.8473 13.2533C26.3398 13.2533 26.8204 13.1979 27.2827 13.093C27.2285 14.038 26.5617 14.8417 25.806 14.8417ZM25.8473 11.8554C23.7579 11.8554 21.9053 10.6 21.0938 8.71807C22.0559 8.44356 22.7918 7.6202 22.947 6.60613C23.3604 6.65968 23.7794 6.68668 24.1997 6.68668C25.6091 6.68668 26.9668 6.38867 28.1828 5.81798C28.4961 6.90353 29.4915 7.6991 30.6675 7.6991C30.7533 7.6991 30.8385 7.69473 30.9229 7.68617C30.4344 10.0608 28.3378 11.8554 25.8473 11.8554ZM30.6675 6.3013C30.005 6.3013 29.466 5.75779 29.466 5.0896V4.70064C29.466 4.44631 29.3291 4.21208 29.1084 4.08898C28.8876 3.96579 28.6181 3.97339 28.4047 4.10872C27.1854 4.88079 25.7314 5.28889 24.1996 5.28889C23.6006 5.28889 23.0056 5.22519 22.4311 5.09956C22.2264 5.05474 22.0125 5.10585 21.8493 5.23856C21.6862 5.37127 21.5914 5.57126 21.5914 5.7826V6.2066C21.5914 6.8747 21.0525 7.4183 20.39 7.4183C20.3447 7.4183 20.2998 7.41576 20.2555 7.41078C20.2451 7.40921 20.2348 7.4079 20.2245 7.40685C20.209 7.40476 20.1937 7.40222 20.1784 7.39951C20.1765 7.33958 20.1756 7.27982 20.1756 7.22023C20.1756 6.25045 20.4168 5.29046 20.8733 4.44343C20.8751 4.44002 20.877 4.4367 20.8785 4.43417C20.8843 4.42342 21.5102 3.32897 22.4151 2.61579C22.4169 2.6143 22.4196 2.6122 22.4196 2.6122C23.4377 1.81777 24.6576 1.39788 25.9476 1.39788C26.8203 1.39788 27.6585 1.5893 28.439 1.96682C28.4525 1.97337 28.4725 1.98255 28.4986 1.99417C29.2692 2.33944 29.8609 2.89825 30.2238 3.30983C30.2278 3.31455 30.2319 3.31918 30.236 3.3239C30.8899 4.05578 31.3469 4.93749 31.5676 5.88849C31.3409 6.14745 31.0132 6.3013 30.6675 6.3013ZM19.9458 24.1841C21.5159 23.2521 22.5721 21.5293 22.5721 19.5626C22.5721 18.6775 22.3582 17.8418 21.9799 17.1054C21.9663 17.0744 21.9508 17.045 21.9335 17.017C21.0339 15.3436 19.2766 14.2046 17.2604 14.2046C15.2438 14.2046 13.4861 15.3439 12.5868 17.0182C12.57 17.0454 12.5548 17.0742 12.5415 17.1042C12.1628 17.8409 11.9488 18.677 11.9488 19.5626C11.9488 21.529 13.0044 23.2514 14.5741 24.1834C12.6311 25.1966 11.4003 27.2078 11.4003 29.4336V31.9828C11.4003 32.2218 11.5213 32.4441 11.7211 32.5725L16.8884 35.8907C17.0019 35.9636 17.1312 36 17.2605 36C17.389 36 17.5175 35.964 17.6306 35.8919L22.81 32.5911C23.012 32.4624 23.1339 32.2379 23.1328 31.9969L23.1206 29.4303C23.11 27.1993 21.8806 25.1947 19.9458 24.1841ZM17.2604 15.6025C18.4665 15.6025 19.547 16.1537 20.2678 17.0197C19.3342 17.2896 18.3102 17.4304 17.2606 17.4304C16.2105 17.4304 15.1865 17.2896 14.2529 17.0197C14.9737 16.1537 16.0544 15.6025 17.2604 15.6025ZM13.3345 19.5626C13.3345 19.1085 13.4106 18.6719 13.5508 18.2654C14.6941 18.6348 15.9629 18.8282 17.2606 18.8282C18.5578 18.8282 19.8265 18.6348 20.97 18.2654C21.1101 18.6719 21.1863 19.1085 21.1863 19.5626C21.1863 21.7461 19.4252 23.5227 17.2604 23.5227C15.0957 23.5227 13.3345 21.7461 13.3345 19.5626ZM18.4903 24.7756C18.4037 25.4368 17.8287 25.8838 17.3085 25.8838H17.2242C16.6732 25.8838 16.0614 25.4138 15.9822 24.7637C16.3917 24.8661 16.8199 24.9206 17.2603 24.9206C17.6835 24.9206 18.0954 24.8703 18.4903 24.7756ZM17.2619 34.4735L12.7861 31.5993V29.4337C12.7861 27.8968 13.5559 26.4935 14.802 25.6665C15.2349 26.6631 16.2556 27.2817 17.2242 27.2817H17.3085C18.3542 27.2817 19.2785 26.5952 19.6778 25.6415C20.9419 26.4636 21.7273 27.878 21.7347 29.437L21.7451 31.6163L17.2619 34.4735ZM12.2848 15.7124C12.4868 15.3845 12.387 14.9535 12.0621 14.7498C11.8511 14.6175 11.6323 14.4975 11.4078 14.3908C12.264 13.9492 13.0215 13.3167 13.6227 12.5256C13.8704 12.6123 14.1362 12.6595 14.4126 12.6595C15.7441 12.6595 16.8274 11.5668 16.8274 10.2237V8.48672C16.8274 6.27876 15.9912 4.18762 14.473 2.59866C12.9591 1.01434 10.9266 0.0940076 8.75007 0.00716414C8.56091 -0.000174735 8.38422 -0.00192209 8.21108 0.00235893C6.0442 0.055129 4.00023 0.939813 2.45566 2.49338C0.872119 4.0861 1.52588e-05 6.21463 1.52588e-05 8.4868V10.2238C1.52588e-05 11.5669 1.08328 12.6596 2.41487 12.6596C2.69133 12.6596 2.95706 12.6125 3.2046 12.5258C3.86693 13.3972 4.71885 14.0761 5.68363 14.5195C3.5456 15.6537 2.22319 17.8492 2.22319 20.2805V26.0017C2.22319 26.2384 2.34202 26.4591 2.53898 26.588L8.8249 30.7022C8.9414 30.7785 9.0721 30.8149 9.20141 30.8149C9.42825 30.8149 9.65067 30.7026 9.78327 30.4964C9.99158 30.1725 9.9002 29.7397 9.57921 29.5296L3.609 25.622V20.2805C3.609 18.6633 4.35551 17.1785 5.60611 16.2203C6.03502 17.4758 7.13639 18.4191 8.35416 18.4191H8.45758C9.78016 18.4191 10.8358 17.2115 11.2075 15.8624C11.2488 15.8867 11.2898 15.9116 11.3304 15.937C11.6556 16.1409 12.0828 16.0402 12.2848 15.7124ZM4.12859 5.9465C3.68062 6.71394 3.44383 7.59233 3.44383 8.4868V10.2238C3.44383 10.5549 3.28931 10.8503 3.04913 11.0405C3.02852 11.054 3.00886 11.0685 2.99015 11.0839C2.82584 11.1962 2.62776 11.2617 2.41478 11.2617C1.84738 11.2617 1.38582 10.7961 1.38582 10.2238V8.48672C1.38582 4.60646 4.39856 1.49355 8.24425 1.39972C8.38803 1.39613 8.5357 1.39771 8.69576 1.40391C12.4784 1.55514 15.4415 4.66622 15.4415 8.48672V10.2237C15.4415 10.796 14.9799 11.2616 14.4125 11.2616C14.1995 11.2616 14.0013 11.196 13.8369 11.0837C13.8183 11.0684 13.7987 11.054 13.7782 11.0405C13.538 10.8503 13.3834 10.5548 13.3834 10.2237V8.48672C13.3834 6.01963 11.5614 3.88768 9.14528 3.52764C8.95534 3.49916 8.76228 3.55176 8.61218 3.6725C8.46208 3.79324 8.36828 3.9713 8.35321 4.16438C8.31519 4.65294 8.22736 5.13468 8.09147 5.60219H4.72561C4.48023 5.60219 4.25305 5.73315 4.12859 5.9465ZM8.45758 17.0212H8.35416C7.57084 17.0212 6.80198 16.062 6.80198 15.0846C6.80198 15.0243 6.79427 14.965 6.77954 14.9081C7.3058 15.0431 7.8538 15.1135 8.41375 15.1135C8.94382 15.1135 9.46333 15.0504 9.96369 14.9292C9.91657 15.9456 9.15403 17.0212 8.45758 17.0212ZM8.41375 13.7156C6.79877 13.7156 5.30825 12.9739 4.32901 11.707C4.64272 11.2959 4.82954 10.7813 4.82954 10.2237V8.48672C4.82954 7.97186 4.93816 7.46469 5.14585 7.00007H8.59157C8.88163 7.00007 9.14095 6.81791 9.24151 6.5434C9.41474 6.07074 9.54543 5.58314 9.63239 5.08654C11.0197 5.5959 11.9977 6.95123 11.9977 8.48672V10.2237C11.9977 10.7813 12.1845 11.2959 12.4983 11.707C11.5192 12.974 10.0287 13.7156 8.41375 13.7156Z" fill="#7E8B9E"/></svg>