<svg width="33" height="33" viewBox="0 0 33 33" xmlns="http://www.w3.org/2000/svg"><path fill-rule="evenodd" clip-rule="evenodd" d="M33 16.5C33 25.6127 25.6127 33 16.5 33C7.3873 33 0 25.6127 0 16.5C0 7.3873 7.3873 0 16.5 0C25.6127 0 33 7.3873 33 16.5ZM8.62302 26.2058C6.04887 24.1167 4.41005 21.0906 4.06707 17.7932C3.7241 14.4958 4.70506 11.1972 6.79416 8.62302C8.88327 6.04888 11.9094 4.41005 15.2068 4.06707C18.5042 3.7241 21.8028 4.70506 24.377 6.79416L8.62302 26.2058ZM28.9329 15.2068C28.5899 11.9093 27 9.50001 26.2058 8.50001L10.4519 27.9117C11.5 28.5 14.4958 29.2759 17.7932 28.9329C21.0906 28.5899 24.1167 26.9511 26.2058 24.3769C28.2949 21.8028 29.2759 18.5042 28.9329 15.2068Z" fill="#5EC1BB"/><path d="M24.8063 6.25962C19.1021 1.69935 10.7812 2.62677 6.2209 8.33091C1.66063 14.0351 2.58805 22.356 8.29219 26.9163C8.5962 27.1493 9.03085 27.0961 9.26981 26.7967L24.9399 7.24428C25.1745 6.93534 25.1147 6.4948 24.8063 6.25962ZM13.5953 19.1445H10.9719C10.9015 19.1445 10.8593 19.1445 10.8593 19.1445V16.4438C10.894 16.4129 10.9397 16.3976 10.9859 16.4016H15.7967L13.5953 19.1445ZM16.9079 14.9949H10.9719C10.1651 14.9671 9.48696 15.5951 9.45267 16.4016V19.1234C9.48696 19.9299 10.1651 20.5579 10.9719 20.5301H12.4699L8.62275 25.3619C3.69868 21.0855 3.17365 13.627 7.45004 8.70297C9.24238 6.63924 11.6951 5.26116 14.39 4.80374C17.5417 4.2591 20.7793 5.02089 23.3574 6.91371L16.9079 14.9949Z M29.61 14.2916L29.6522 14.3057C29.2682 12.0866 28.324 10.0022 26.9092 8.25004C26.7721 8.08089 26.5643 7.9848 26.3466 7.98981C26.1337 7.98911 25.932 8.08476 25.798 8.25004L10.3951 27.2398C10.1504 27.5414 10.1964 27.9844 10.4979 28.2291C10.5358 28.2599 10.5768 28.2866 10.6202 28.3089C17.1268 31.6071 25.0752 29.0062 28.3734 22.4996C29.6569 19.9675 30.0905 17.0893 29.61 14.2916ZM20.9028 16.5633L21.0294 16.4016H25.2494C25.3197 16.4016 25.3619 16.4016 25.3619 16.4016V19.1023C25.3295 19.1321 25.2863 19.1474 25.2423 19.1445H20.8888L20.9028 16.5633ZM19.4962 18.3006V19.1445H18.7928L19.4962 18.3006ZM23.3645 26.2612C21.9408 27.2473 20.3176 27.908 18.61 28.1963C16.4049 28.5756 14.1373 28.3144 12.0761 27.4438L17.6605 20.5512H25.2283C26.035 20.579 26.7132 19.951 26.7475 19.1445V16.4086C26.7132 15.6022 26.035 14.9742 25.2283 15.002H22.1266L26.3466 9.83955C30.0578 15.1977 28.7227 22.55 23.3645 26.2612Z M16.5 0C7.38728 0 0 7.38728 0 16.5C0 25.6127 7.38728 33 16.5 33C25.6127 33 33 25.6127 33 16.5C32.9884 7.39212 25.6079 0.0116049 16.5 0ZM16.5 31.5934C8.16419 31.5934 1.40665 24.8358 1.40665 16.5C1.40665 8.16419 8.16419 1.40665 16.5 1.40665C24.8358 1.40665 31.5934 8.16419 31.5934 16.5C31.5856 24.8326 24.8326 31.5856 16.5 31.5934Z M9.57595 10.052C9.39678 9.7257 8.9943 9.59558 8.65794 9.75515V9.74108C7.15994 10.4905 6.3891 12.1846 6.80819 13.8063C6.37494 14.419 6.18672 15.1717 6.2807 15.9163C6.43086 16.7558 6.89004 17.5085 7.56778 18.0262C7.87065 18.2547 8.30003 18.2017 8.53837 17.9067C8.77143 17.5959 8.70849 17.1551 8.39771 16.922C8.03119 16.6175 7.78247 16.1946 7.69438 15.7264C7.65183 15.2402 7.80929 14.7576 8.13044 14.3901C8.27497 14.2046 8.31717 13.9591 8.24297 13.736C7.85861 12.6905 8.31023 11.5222 9.29796 11.0071C9.63846 10.8201 9.76286 10.3925 9.57595 10.052Z" fill="#7E8B9E"/></svg>