<svg width="33" height="25" viewBox="0 0 33 25" xmlns="http://www.w3.org/2000/svg"><path fill-rule="evenodd" clip-rule="evenodd" d="M4 8H29L31 11.5V20L29.5 20.5H23.5V18H9.5L9.625 20.5H3L2 19.5V11L4 8ZM7 13.5C7 14.3284 6.32843 15 5.5 15C4.67157 15 4 14.3284 4 13.5C4 12.6716 4.67157 12 5.5 12C6.32843 12 7 12.6716 7 13.5ZM29 13.5C29 14.3284 28.3284 15 27.5 15C26.6716 15 26 14.3284 26 13.5C26 12.6716 26.6716 12 27.5 12C28.3284 12 29 12.6716 29 13.5ZM9.5 12.5H23.5L22.5 14.5H10L9.5 12.5Z" fill="#5EC1BB"/><path d="M23.5872 7.0199H22.4062C22.1005 7.0199 21.8525 7.28775 21.8525 7.61822C21.8525 7.94861 22.1004 8.21654 22.4062 8.21654H23.5872C23.893 8.21654 24.1409 7.94868 24.1409 7.61822C24.1409 7.28775 23.893 7.0199 23.5872 7.0199Z M23.7327 11.9626C23.5144 11.6604 23.1856 11.4871 22.8308 11.4871H10.1692C9.81435 11.4871 9.48563 11.6604 9.2672 11.9626C9.04884 12.2649 8.97291 12.6515 9.05902 13.0234L9.35434 14.2999C9.48196 14.8513 9.93848 15.2364 10.4645 15.2364H22.5355C23.0615 15.2364 23.518 14.8513 23.6457 14.2998L23.941 13.0234C24.027 12.6514 23.9511 12.2648 23.7327 11.9626ZM22.8666 12.7333L22.5713 14.0096C22.5672 14.0275 22.5525 14.0398 22.5355 14.0398H10.4645C10.4475 14.0398 10.4327 14.0274 10.4286 14.0097L10.1333 12.7333C10.132 12.7276 10.1289 12.7144 10.14 12.6991C10.1511 12.6838 10.1637 12.6838 10.1691 12.6838H22.8308C22.8362 12.6838 22.8488 12.6838 22.8599 12.6991C22.8709 12.7144 22.868 12.7276 22.8666 12.7333Z M31.2651 8.21644C32.2217 8.21644 33 7.37548 33 6.34181C33 5.30813 32.2217 4.46717 31.2651 4.46717H30.6745C29.812 4.46717 29.0946 5.15109 28.9618 6.04331L27.4847 1.65407C27.1518 0.664625 26.2735 -6.66777e-05 25.2993 -6.66777e-05H19.9587C18.8084 -6.66777e-05 18.6213 -3.17494e-05 17.7972 -3.17494e-05L13.0411 -6.66777e-05C12.217 -6.66777e-05 12.5 -0.000191311 11.9118 -6.66777e-05H7.70067C6.72639 -6.66777e-05 5.84809 0.664695 5.51519 1.654L4.03818 6.04324C3.90547 5.15109 3.18811 4.46717 2.32553 4.46717H1.73495C0.778271 4.46717 0 5.30813 0 6.34181C0 7.37548 0.778271 8.21644 1.73488 8.21644H2.32547C2.59817 8.21644 2.85624 8.14791 3.08608 8.02624L1.82022 9.73609C1.40811 10.2927 1.18117 10.9917 1.18117 11.7045V23.5726C1.18117 24.2544 1.69447 24.8091 2.32547 24.8091H4.09729C4.72828 24.8091 5.24159 24.2544 5.24159 23.5726V20.98H27.7583V23.5726C27.7583 24.2544 28.2717 24.8091 28.9026 24.8091H30.6745C31.3055 24.8091 31.8188 24.2544 31.8188 23.5726V11.7045C31.8188 10.9917 31.5918 10.2926 31.1797 9.73609L29.9139 8.02624C30.1437 8.14791 30.4018 8.21644 30.6745 8.21644H31.2651ZM2.32553 7.01987H1.73495C1.3889 7.01987 1.10743 6.71573 1.10743 6.34181C1.10743 5.96788 1.3889 5.66374 1.73495 5.66374H2.32553C2.67158 5.66374 2.95305 5.96788 2.95305 6.34181C2.95305 6.71566 2.67152 7.01987 2.32553 7.01987ZM4.13422 23.5726C4.13422 23.5946 4.11765 23.6125 4.09729 23.6125H2.32547C2.3051 23.6125 2.28854 23.5946 2.28854 23.5726V20.6066C2.64303 20.8431 3.0603 20.98 3.50664 20.98H4.13415L4.13422 23.5726ZM23.0335 19.7834H9.96645V18.4672C9.96645 18.4452 9.98302 18.4273 10.0034 18.4273H22.9967C23.017 18.4273 23.0336 18.4452 23.0336 18.4672L23.0335 19.7834ZM30.7114 23.5726C30.7114 23.5946 30.6948 23.6125 30.6745 23.6125H28.9026C28.8823 23.6125 28.8657 23.5946 28.8657 23.5726V20.98H29.4932C29.9396 20.98 30.3568 20.8431 30.7113 20.6066L30.7114 23.5726ZM30.3151 10.4836C30.5706 10.8288 30.7115 11.2624 30.7115 11.7045V18.4672C30.7115 19.193 30.165 19.7834 29.4934 19.7834H24.1409V18.4672C24.1409 17.7854 23.6276 17.2307 22.9966 17.2307H10.0034C9.37239 17.2307 8.85908 17.7854 8.85908 18.4672V19.7834H3.5067C2.83504 19.7834 2.2886 19.193 2.2886 18.4672V11.7045C2.2886 11.2624 2.42937 10.8288 2.68499 10.4836L4.36341 8.21644H20.0436C20.3494 8.21644 20.5974 7.94858 20.5974 7.61812C20.5974 7.28772 20.3495 7.0198 20.0436 7.0198H4.88787L6.55604 2.06282C6.73039 1.54459 7.19045 1.19643 7.70079 1.19643H25.2993C25.8097 1.19643 26.2697 1.54466 26.4441 2.06282L28.1123 7.0198H25.9498C25.644 7.0198 25.3961 7.28765 25.3961 7.61812C25.3961 7.94851 25.644 8.21644 25.9498 8.21644H28.6367L30.3151 10.4836ZM30.047 6.34181C30.047 5.96788 30.3284 5.66374 30.6745 5.66374H31.2651C31.6111 5.66374 31.8926 5.96788 31.8926 6.34181C31.8926 6.71573 31.6111 7.01987 31.2651 7.01987H30.6745C30.3285 7.01987 30.047 6.71566 30.047 6.34181Z M5.86909 15.9543C5.2381 15.9543 4.72479 16.509 4.72479 17.1908C4.72479 17.8726 5.2381 18.4273 5.86909 18.4273C6.50009 18.4273 7.01339 17.8726 7.01339 17.1908C7.01339 16.509 6.50009 15.9543 5.86909 15.9543Z M27.1309 15.9543C26.4999 15.9543 25.9866 16.509 25.9866 17.1908C25.9866 17.8726 26.4999 18.4273 27.1309 18.4273C27.7619 18.4273 28.2752 17.8726 28.2752 17.1908C28.2752 16.509 27.7618 15.9543 27.1309 15.9543Z M5.57385 10.849C4.45436 10.849 3.54364 11.8331 3.54364 13.0427C3.54364 14.2524 4.45436 15.2365 5.57385 15.2365C6.69334 15.2365 7.60406 14.2524 7.60406 13.0427C7.60406 11.8331 6.69334 10.849 5.57385 10.849ZM5.57385 14.0399C5.06499 14.0399 4.65101 13.5926 4.65101 13.0427C4.65101 12.4928 5.06493 12.0455 5.57385 12.0455C6.08277 12.0455 6.49669 12.4928 6.49669 13.0427C6.49669 13.5926 6.08271 14.0399 5.57385 14.0399Z M27.4262 10.849C26.3067 10.849 25.396 11.8331 25.396 13.0427C25.396 14.2524 26.3067 15.2365 27.4262 15.2365C28.5457 15.2365 29.4564 14.2524 29.4564 13.0427C29.4564 11.8331 28.5457 10.849 27.4262 10.849ZM27.4262 14.0399C26.9173 14.0399 26.5033 13.5926 26.5033 13.0427C26.5033 12.4928 26.9173 12.0455 27.4262 12.0455C27.935 12.0455 28.349 12.4928 28.349 13.0427C28.349 13.5926 27.9351 14.0399 27.4262 14.0399Z" fill="#7E8B9E"/></svg>