<svg width="33" height="30" viewBox="0 0 33 30" xmlns="http://www.w3.org/2000/svg"><path d="M2.50002 14V20.5V21H4.50002V18.5L5.50002 17L7.50002 17.5V22H9.50002L10.5 17H12.5L13 19.5H14.5L16 17H17.5L18 20.5H20L21 17H22.5L23.5 19.5H25L26 17L28 17.5L28.5 21H30.5V14H2.50002Z" fill="#5EC1BB"/><path d="M30.1426 22.0477C30.8323 21.768 31.3242 21.0532 31.3242 20.2174V15C31.3242 13.9212 30.505 13.0435 29.4981 13.0435H26.4903V8.50029C26.4903 8.15372 26.3572 7.83879 26.1413 7.60218C26.5954 7.05938 26.9288 6.13557 26.3169 4.65423C25.8876 3.61532 25.1407 2.65975 24.7336 2.18269C24.6112 2.03921 24.4331 1.95671 24.2458 1.95671C24.0584 1.95671 23.8803 2.03921 23.7579 2.18269C21.8236 4.44997 21.328 6.35725 22.3409 7.58751C22.117 7.82548 21.9786 8.14648 21.9786 8.50022V13.0434H18.7559V6.54364C18.7559 6.19707 18.6228 5.88207 18.4069 5.64553C18.861 5.10266 19.1945 4.17893 18.5825 2.69752C18.1532 1.6586 17.4063 0.703107 16.9993 0.225978C16.8769 0.0824998 16.6988 0 16.5115 0C16.3241 0 16.146 0.0824998 16.0236 0.225978C14.0894 2.49312 13.5937 4.4004 14.6065 5.63079C14.3827 5.86883 14.2443 6.18983 14.2443 6.54357V13.0434H11.0216V8.50016C11.0216 8.15359 10.8885 7.83866 10.6726 7.60211C11.1267 7.05925 11.4602 6.13551 10.8481 4.6541C10.4189 3.61512 9.672 2.65962 9.26498 2.18256C9.14258 2.03902 8.9645 1.95658 8.77713 1.95658C8.58976 1.95658 8.41168 2.03908 8.28928 2.18256C6.35498 4.44977 5.8594 6.35705 6.87221 7.58738C6.64837 7.82542 6.50999 8.14642 6.50999 8.50016V13.0434H3.50189C2.49494 13.0434 1.67574 13.9211 1.67574 14.9999V20.2173C1.67574 21.0531 2.16764 21.7678 2.85736 22.0476L2.85742 28.0435C2.85742 28.2721 2.89455 28.4916 2.96209 28.6957H2.5115C2.15559 28.6957 1.86697 28.9876 1.86697 29.3478C1.86697 29.708 2.15559 30 2.5115 30H30.4885C30.8444 30 31.1331 29.708 31.1331 29.3478C31.1331 28.9876 30.8444 28.6957 30.4885 28.6957H30.0379C30.1055 28.4916 30.1426 28.2721 30.1426 28.0435V22.0477ZM24.2431 3.65151C25.0184 4.71671 25.765 6.16446 25.0949 6.8274C24.869 7.05083 24.5678 7.1739 24.2466 7.17409H24.2383C23.9146 7.17214 23.6176 7.05083 23.4018 6.83255C22.6593 6.08125 23.5532 4.5806 24.2431 3.65151ZM23.2676 8.50029C23.2676 8.48966 23.2788 8.47837 23.2893 8.47837H24.2306L24.2459 8.47844C24.2464 8.47844 24.2468 8.47837 24.2473 8.47837H25.1796C25.1902 8.47837 25.2013 8.48966 25.2013 8.50029V13.0435H23.2677L23.2676 8.50029ZM16.5086 1.69487C17.284 2.76006 18.0306 4.20782 17.3604 4.87082C17.1347 5.09425 16.8334 5.21731 16.5122 5.21744H16.5038C16.1802 5.21549 15.8831 5.09418 15.6674 4.87597C14.9249 4.1246 15.8188 2.62395 16.5086 1.69487ZM17.4668 6.5437V13.0435H15.5332V6.5437C15.5332 6.53307 15.5443 6.52179 15.5548 6.52179H16.5115C16.5119 6.52179 16.5124 6.52179 16.5128 6.52179H17.4451C17.4556 6.52179 17.4668 6.53307 17.4668 6.5437ZM8.77423 3.65145C9.5496 4.71658 10.2962 6.1644 9.62604 6.82733C9.40026 7.05077 9.09888 7.17383 8.77765 7.17403H8.7694C8.44578 7.17207 8.14871 7.05077 7.93299 6.83249C7.19048 6.08118 8.08439 4.58053 8.77423 3.65145ZM7.79873 8.50029C7.79873 8.48966 7.80988 8.47837 7.82039 8.47837H8.76166L8.777 8.47844C8.77745 8.47844 8.7779 8.47837 8.77835 8.47837H9.7108C9.72131 8.47837 9.73239 8.48966 9.73239 8.50029V13.0435H7.79879L7.79873 8.50029ZM28.8534 22.5875H26.8531C26.4972 22.5875 26.2086 22.8795 26.2086 23.2396C26.2086 23.5998 26.4972 23.8918 26.8531 23.8918H28.8534V28.0435C28.8534 28.3968 28.6077 28.6953 28.3168 28.6957H4.68306C4.39218 28.6953 4.14649 28.3968 4.14649 28.0435V27.5439H6.14679C6.5027 27.5439 6.79133 27.2519 6.79133 26.8917C6.79133 26.5316 6.5027 26.2396 6.14679 26.2396H4.14649L4.14642 22.0478C4.8362 21.768 5.32811 21.0533 5.32811 20.2175V18.2766C5.32811 17.8445 5.6342 17.4795 5.99649 17.4795C6.35878 17.4795 6.66487 17.8445 6.66487 18.2766V20.9543C6.66487 22.1131 7.54298 23.0557 8.62238 23.0557C9.70171 23.0557 10.5798 22.113 10.5798 20.9543V18.2766C10.5798 17.8445 10.8859 17.4795 11.2482 17.4795C11.6106 17.4795 11.9166 17.8445 11.9166 18.2766V18.4434C11.9166 19.6021 12.7948 20.5448 13.8741 20.5448C14.9534 20.5448 15.8315 19.6021 15.8315 18.4434V18.2766C15.8315 17.8445 16.1376 17.4795 16.4999 17.4795C16.8623 17.4795 17.1684 17.8445 17.1684 18.2766V19.6499C17.1684 20.8086 18.0465 21.7513 19.1258 21.7513C20.2051 21.7513 21.0833 20.8086 21.0833 19.6499V18.2766C21.0833 17.8445 21.3893 17.4795 21.7516 17.4795C22.114 17.4795 22.4201 17.8445 22.4201 18.2766V18.4434C22.4201 19.6021 23.2982 20.5448 24.3775 20.5448C25.4569 20.5448 26.335 19.6021 26.335 18.4434V18.2766C26.335 17.8445 26.6411 17.4795 27.0034 17.4795C27.3657 17.4795 27.6718 17.8445 27.6718 18.2766V20.2175C27.6718 21.0533 28.1637 21.768 28.8534 22.0478V22.5875ZM30.0352 20.2174C30.0352 20.5709 29.7892 20.8696 29.4981 20.8696C29.2069 20.8696 28.961 20.5709 28.961 20.2174V18.2765C28.961 17.1178 28.0829 16.1751 27.0035 16.1751C25.9241 16.1751 25.046 17.1178 25.046 18.2765V18.4433C25.046 18.8754 24.7399 19.2404 24.3777 19.2404C24.0154 19.2404 23.7093 18.8754 23.7093 18.4433V18.2765C23.7093 17.1178 22.8312 16.1751 21.7518 16.1751C20.6724 16.1751 19.7943 17.1178 19.7943 18.2765V19.6498C19.7943 20.0819 19.4882 20.4469 19.1259 20.4469C18.7636 20.4469 18.4576 20.0819 18.4576 19.6498V18.2765C18.4576 17.1178 17.5794 16.1751 16.5 16.1751C15.4207 16.1751 14.5426 17.1178 14.5426 18.2765V18.4433C14.5426 18.8754 14.2365 19.2404 13.8742 19.2404C13.5119 19.2404 13.2058 18.8754 13.2058 18.4433V18.2765C13.2058 17.1178 12.3277 16.1751 11.2483 16.1751C10.169 16.1751 9.29089 17.1178 9.29089 18.2765V20.9542C9.29089 21.3863 8.9848 21.7513 8.62251 21.7513C8.26015 21.7513 7.95406 21.3863 7.95406 20.9542V18.2765C7.95406 17.1178 7.07595 16.1751 5.99662 16.1751C4.91728 16.1751 4.03917 17.1178 4.03917 18.2765V20.2174C4.03917 20.5709 3.79322 20.8696 3.50202 20.8696C3.21088 20.8696 2.96493 20.5709 2.96493 20.2174V15C2.96493 14.6466 3.21088 14.3479 3.50208 14.3479H29.4981C29.7892 14.3479 30.0352 14.6466 30.0352 15V20.2174Z M32.3555 28.6957H32.3403C31.9844 28.6957 31.6958 28.9877 31.6958 29.3479C31.6958 29.708 31.9844 30 32.3403 30H32.3555C32.7115 30 33 29.708 33 29.3479C33 28.9877 32.7115 28.6957 32.3555 28.6957Z M0.659694 28.6957H0.644548C0.288572 28.6957 1.52588e-05 28.9877 1.52588e-05 29.3479C1.52588e-05 29.708 0.288572 30 0.644548 30H0.659694C1.0156 30 1.30423 29.708 1.30423 29.3479C1.30423 28.9877 1.01567 28.6957 0.659694 28.6957Z M8.01373 26.2397H7.99858C7.64267 26.2397 7.35405 26.5317 7.35405 26.8919C7.35405 27.2521 7.64267 27.5441 7.99858 27.5441H8.01373C8.36964 27.5441 8.65826 27.2521 8.65826 26.8919C8.65826 26.5317 8.36964 26.2397 8.01373 26.2397Z M25.0014 22.5876H24.9862C24.6303 22.5876 24.3417 22.8796 24.3417 23.2398C24.3417 23.6 24.6303 23.892 24.9862 23.892H25.0014C25.3574 23.892 25.646 23.6 25.646 23.2398C25.646 22.8796 25.3574 22.5876 25.0014 22.5876Z M16.423 22.2616H15.1983C14.8424 22.2616 14.5538 22.5536 14.5538 22.9138C14.5538 23.274 14.8424 23.5659 15.1983 23.5659H16.423C16.7789 23.5659 17.0675 23.274 17.0675 22.9138C17.0675 22.5536 16.7789 22.2616 16.423 22.2616Z M11.7823 24.1206H10.9444C10.5885 24.1206 10.2999 24.4126 10.2999 24.7728C10.2999 25.133 10.5885 25.4249 10.9444 25.4249H11.7823C12.1383 25.4249 12.4269 25.133 12.4269 24.7728C12.4269 24.4126 12.1382 24.1206 11.7823 24.1206Z M26.1554 26.2397H24.673C24.3171 26.2397 24.0285 26.5317 24.0285 26.8919C24.0285 27.2521 24.3171 27.5441 24.673 27.5441H26.1554C26.5113 27.5441 26.7999 27.2521 26.7999 26.8919C26.7999 26.5317 26.5113 26.2397 26.1554 26.2397Z M21.4826 23.5011H20.6447C20.2888 23.5011 20.0001 23.7931 20.0001 24.1533C20.0001 24.5135 20.2888 24.8054 20.6447 24.8054H21.4826C21.8385 24.8054 22.1271 24.5135 22.1271 24.1533C22.1271 23.7931 21.8385 23.5011 21.4826 23.5011Z M17.8732 26.2397H17.0353C16.6794 26.2397 16.3907 26.5317 16.3907 26.8919C16.3907 27.2521 16.6794 27.5441 17.0353 27.5441H17.8732C18.2291 27.5441 18.5177 27.2521 18.5177 26.8919C18.5177 26.5317 18.2291 26.2397 17.8732 26.2397Z" fill="#7E8B9E"/></svg>