<svg width="58" height="58" viewBox="0 0 58 58" xmlns="http://www.w3.org/2000/svg"><path fill-rule="evenodd" clip-rule="evenodd" d="M3.41176 0C1.5275 0 0 1.5275 0 3.41176V54.5882C0 56.4726 1.5275 58 3.41176 58H54.5882C56.4726 58 58 56.4726 58 54.5882V3.41176C58 1.5275 56.4726 0 54.5882 0H3.41176ZM19.5457 31.6704L10.8982 28.3004C10.0199 27.9569 10.0122 26.6621 10.888 26.3095L46.3778 12.0144C47.1301 11.7106 47.9065 12.3988 47.7425 13.2238L41.3738 45.2112C41.2237 45.9664 40.3755 46.3089 39.7769 45.8546L31.0829 39.264C30.5549 38.8638 29.8352 38.8852 29.3299 39.315L24.5096 43.4181C23.9501 43.8958 23.107 43.6296 22.8928 42.9098L19.5457 31.6704ZM39.2539 19.0081L22.3534 29.8765C21.7056 30.2939 21.4006 31.1107 21.6099 31.8754L23.4373 38.5794C23.5669 39.0545 24.2275 39.0057 24.2902 38.5149L24.7655 34.8384C24.855 34.1463 25.1713 33.5086 25.6616 33.0322L39.6094 19.4948C39.8702 19.2422 39.5577 18.8133 39.2539 19.0081Z"/></svg>